<?xml version="1.0" encoding="utf-8"?>
<!-- Generator: Adobe Illustrator 26.5.0, SVG Export Plug-In . SVG Version: 6.00 Build 0)  -->
<svg version="1.1" id="icon" xmlns="http://www.w3.org/2000/svg" xmlns:xlink="http://www.w3.org/1999/xlink" x="0px" y="0px"
	 viewBox="0 0 128 128" style="enable-background:new 0 0 128 128;" xml:space="preserve">
<style type="text/css">
	.st0{fill-rule:evenodd;clip-rule:evenodd;fill:#F3E517;}
	.st1{clip-path:url(#SVGID_00000043427841454178452520000012846239905684150196_);}
	.st2{fill-rule:evenodd;clip-rule:evenodd;fill:#FF7901;}
	.st3{fill-rule:evenodd;clip-rule:evenodd;fill:#FF0101;}
	.st4{clip-path:url(#SVGID_00000011719080257370990770000007801764653583951035_);}
	.st5{fill:#0000CC;}
</style>
<g>
	<path id="path3178" class="st0" d="M61.2,42.5c-2.3,5.7-4.5,15.2-7.2,4.3c-2-7.8-6.3,4.9-9.4,7c-6.3,4.8-9.7,11.5-12.5,18.7
		c-7.4-6.3-4.6,3.8-5.1,8.7c0.4,7.4-0.8,15.5,0.6,22.4c5.9,5.1,10.1,13.2,18.8,13c6,2.1,5.2-6.9,10.6,0.5c5,6.8,8,2.8,11.3-0.5
		c4.7,7.3,6.2-8.7,10.2-1.5c6.2,2.4,11.7,3.6,12.7-4.6c1.3-6.4,12.4-6.6,9.8-14.3c-0.4-8,0.7-16.7-0.5-24.3
		C96.3,68.6,93,61,88.2,60.4c-5.9,2.9-3.6-9.8-6.1-13.5c-0.8-9.8-2.9-5.4-5.2,1.3c-1.3,9.7-6.6,5.1-9.3-1.3
		C65.3,44.9,62.6,34.2,61.2,42.5z"/>
	<g id="g3305" transform="translate(0,0.2718691)">
		<g>
			<defs>
				<polygon id="SVGID_1_" points="30,93.9 32,95.9 35,105.9 36,93.9 39,108.9 39,89.9 41,94.9 44,108.9 44,89.9 46,91.9 49,108.9 
					52,85.9 58.6,111.9 59,95.9 61,89.9 63,114.9 69,89.9 71,110.9 76,88.9 81,112.9 82,94.9 85,88.9 86,111.9 91,89.9 94,99.9 
					95,90.9 98,96.9 98,77.9 95,85.9 94,68.9 92,81.9 90,77.9 89,63.9 84,82.9 83,78.9 80,48.9 77,74.9 75,82.9 71,55.9 67,78.9 
					65,84.9 64,43.6 58,89.9 52,47.9 49,83.9 47,79.9 45,55.9 44,79.9 41,86.9 39,62.9 37,81.9 34,76.9 34,90.9 30,75.9 				"/>
			</defs>
			<clipPath id="SVGID_00000099660673325209093540000009068062629140879243_">
				<use xlink:href="#SVGID_1_"  style="overflow:visible;"/>
			</clipPath>
			<g id="g3122" style="clip-path:url(#SVGID_00000099660673325209093540000009068062629140879243_);">
				<path id="path3120" class="st2" d="M28,115.9v-73h72v73H28z"/>
				<path id="path3118" class="st3" d="M29,79.9l8,5l3-9l5,6l6-10l2,12l2-8l3,6l1-6c0,0,3,8,3,7s4-15,4-15l4,13l6-12l3,13l5-9l3,9
					l5-5l6,6v8l-4,3l-6-2l-4-2l-1,10l-2-10l-4,9l-6-9l-2,9l-4-6l-5,13l-3-15l-6,3l-4-6l-2,10l-4-5l-4,5l-2-3l-6,1V79.9z"/>
			</g>
		</g>
	</g>
	<g>
		<defs>
			<path id="SVGID_00000051373160557309110940000001440113180606584759_" d="M64,7.1c-13.3,0-25.4,4.1-34.3,11.1S15,35.1,15,46.1v4
				C6.1,54.6,0,66.4,0,80.2c0,17.7,10,32,23,32V46.1c0-8.3,4.3-15.9,11.7-21.7s17.8-9.4,29.3-9.4s22,3.7,29.3,9.4S105,37.9,105,46.1
				v66.1c13,0,23-14.3,23-32c0-13.8-6.1-25.6-15-30.1v-4c0-11.1-5.8-21-14.7-28S77.3,7.1,64,7.1z M26,49.2v63c2,0,4-1,5-3v-58
				C30,50.2,28,49.2,26,49.2z M102,49.2c-2,0-4,1-5,2v58c1,2,3,3,5,3V49.2z"/>
		</defs>
		<clipPath id="SVGID_00000028307769084574083060000005596307570391317401_">
			<use xlink:href="#SVGID_00000051373160557309110940000001440113180606584759_"  style="overflow:visible;"/>
		</clipPath>
		
			<g id="g2792" transform="translate(0,0.2718691)" style="clip-path:url(#SVGID_00000028307769084574083060000005596307570391317401_);">
			<path id="path2127" class="st5" d="M64,6.8c-13.3,0-25.4,4.1-34.3,11.1S15,34.8,15,45.9v4C6.1,54.4,0,66.1,0,79.9
				c0,17.7,10,32,23,32V45.9c0-8.3,4.3-15.9,11.7-21.7s17.8-9.4,29.3-9.4s22,3.7,29.3,9.4S105,37.6,105,45.9v66.1
				c13,0,23-14.3,23-32c0-13.8-6.1-25.6-15-30.1v-4c0-11.1-5.8-21-14.7-28S77.3,6.8,64,6.8z M26,48.9v63c2,0,4-1,5-3v-58
				C30,49.9,28,48.9,26,48.9z M102,48.9c-2,0-4,1-5,2v58c1,2,3,3,5,3V48.9z"/>
		</g>
	</g>
</g>
</svg>
