<?xml version="1.0" encoding="utf-8"?>
<!-- Generator: Adobe Illustrator 26.5.0, SVG Export Plug-In . SVG Version: 6.00 Build 0)  -->
<svg version="1.1" id="icon" xmlns="http://www.w3.org/2000/svg" xmlns:xlink="http://www.w3.org/1999/xlink" x="0px" y="0px"
	 viewBox="0 0 128 128" style="enable-background:new 0 0 128 128;" xml:space="preserve">
<style type="text/css">
	.st0{fill:#5865F2;}
	.st1{fill:#FFFFFF;}
</style>
<g>
	<path class="st0" d="M0,64C0,28.6,28.6,0,64,0s64,28.6,64,64s-28.6,64-64,64l0,0C28.6,127.9,0,99.3,0,64L0,64z"/>
	<path class="st1" d="M92.8,38c-5.4-2.5-11.1-4.3-17-5.2c-0.7,1.3-1.6,3.1-2.2,4.5c-6.3-1-12.6-1-18.9,0c-0.7-1.6-1.4-3.1-2.2-4.5
		c-5.9,1-11.6,2.8-17,5.3c-10.7,16-13.7,31.6-12.2,47.1c6.3,4.7,13.4,8.3,20.9,10.5c1.7-2.3,3.2-4.7,4.5-7.2c-2.5-0.9-4.8-2-7-3.4
		c0.6-0.4,1.1-0.9,1.7-1.3c13.2,6.3,28.6,6.3,41.8,0c0.6,0.4,1.1,0.9,1.7,1.3c-2.2,1.3-4.6,2.5-7.1,3.4c1.3,2.5,2.8,4.9,4.5,7.2
		c7.5-2.3,14.6-5.8,20.9-10.5C106.7,67.2,102.1,51.7,92.8,38z M50.4,75.6c-4.1,0-7.4-3.7-7.4-8.3s3.3-8.4,7.4-8.4
		c4.2,0,7.5,3.7,7.5,8.4C57.8,71.8,54.6,75.6,50.4,75.6z M77.9,75.6c-4.1,0-7.4-3.7-7.4-8.3s3.3-8.4,7.4-8.4c4.2,0,7.5,3.7,7.4,8.4
		C85.2,71.9,82,75.6,77.9,75.6z"/>
</g>
</svg>
