<?xml version="1.0" encoding="utf-8"?>
<!-- Generator: Adobe Illustrator 26.5.0, SVG Export Plug-In . SVG Version: 6.00 Build 0)  -->
<svg version="1.1" id="icon" xmlns="http://www.w3.org/2000/svg" xmlns:xlink="http://www.w3.org/1999/xlink" x="0px" y="0px"
	 viewBox="0 0 128 128" style="enable-background:new 0 0 128 128;" xml:space="preserve">
<style type="text/css">
	.st0{fill:#387EB8;}
	.st1{fill:#FFC331;}
	.st2{fill:#FFFFFF;}
</style>
<g id="layer1">
	<path id="path101" class="st0" d="M64,33.4H13.9c0,0-13.9,0-13.9,30.6s13.9,30.6,13.9,30.6h13.9c0,0,0-2.8,0-13.9
		s8.3-19.5,19.5-19.5s25,0,33.4,0s13.9-5.6,14-14s-0.1-33.3-0.1-33.3S94.6,0,64,0S33.4,13.9,33.4,13.9v13.9H64V33.4z"/>
	<path id="path102" class="st1" d="M64,94.6h50.1c0,0,13.9,0,13.9-30.6s-13.9-30.6-13.9-30.6h-13.9c0,0,0,2.8,0,13.9
		s-8.3,19.5-19.5,19.5s-25,0-33.4,0s-13.9,5.6-13.9,13.9s0,33.4,0,33.4S33.4,128,64,128s30.6-13.9,30.6-13.9v-13.9H64V94.6z"/>
	<circle id="path103" class="st2" cx="47.3" cy="13.9" r="5.6"/>
	<circle id="path104" class="st2" cx="80.7" cy="114.1" r="5.6"/>
</g>
</svg>
