<?xml version="1.0" encoding="utf-8"?>
<!-- Generator: Adobe Illustrator 26.5.0, SVG Export Plug-In . SVG Version: 6.00 Build 0)  -->
<svg version="1.1" id="icon" xmlns="http://www.w3.org/2000/svg" xmlns:xlink="http://www.w3.org/1999/xlink" x="0px" y="0px"
	 viewBox="0 0 128 128" style="enable-background:new 0 0 128 128;" xml:space="preserve">
<style type="text/css">
	.st0{fill:url(#SVGID_1_);}
	.st1{fill:url(#SVGID_00000039127934355376608430000005003969502594396572_);}
</style>
<g>
	
		<linearGradient id="SVGID_1_" gradientUnits="userSpaceOnUse" x1="32.0024" y1="143.9967" x2="106.7424" y2="42.4939" gradientTransform="matrix(1 0 0 -1 0 130)">
		<stop  offset="0" style="stop-color:#41D1FF"/>
		<stop  offset="1" style="stop-color:#BD34FE"/>
	</linearGradient>
	<path class="st0" d="M127.5,18.9L67.4,126.3c-1.2,2.2-4.4,2.2-5.7,0L0.5,19c-1.4-2.4,0.7-5.3,3.4-4.8L64,24.9
		c0.4,0.1,0.8,0.1,1.2,0l58.9-10.7C126.8,13.6,128.8,16.5,127.5,18.9z"/>
	
		<linearGradient id="SVGID_00000023993471371274563390000011375510517371139994_" gradientUnits="userSpaceOnUse" x1="67.2462" y1="128.5742" x2="80.7663" y2="35.8278" gradientTransform="matrix(1 0 0 -1 0 130)">
		<stop  offset="0" style="stop-color:#FFEA83"/>
		<stop  offset="8.333330e-02" style="stop-color:#FFDD35"/>
		<stop  offset="1" style="stop-color:#FFA800"/>
	</linearGradient>
	<path style="fill:url(#SVGID_00000023993471371274563390000011375510517371139994_);" d="M92.7,0L48.2,8.7
		c-0.7,0.1-1.3,0.8-1.3,1.5l-2.7,46.2c-0.1,1.1,0.9,1.9,2,1.7l12.4-2.9c1.2-0.3,2.2,0.8,2,1.9l-3.7,18c-0.2,1.2,0.9,2.2,2.1,1.9
		l7.6-2.3c1.2-0.4,2.3,0.7,2.1,1.9l-5.8,28.3c-0.4,1.8,2,2.7,3,1.2l0.7-1l36.2-72.3c0.6-1.2-0.4-2.6-1.8-2.3L88.1,33
		c-1.2,0.2-2.2-0.9-1.9-2.1l8.3-28.8C94.9,0.9,93.9-0.2,92.7,0z"/>
</g>
</svg>
