<?xml version="1.0" encoding="utf-8"?>
<!-- Generator: Adobe Illustrator 26.5.0, SVG Export Plug-In . SVG Version: 6.00 Build 0)  -->
<svg version="1.1" id="icon" xmlns="http://www.w3.org/2000/svg" xmlns:xlink="http://www.w3.org/1999/xlink" x="0px" y="0px"
	 viewBox="0 0 128 128" style="enable-background:new 0 0 128 128;" xml:space="preserve">
<style type="text/css">
	.st0{fill-rule:evenodd;clip-rule:evenodd;fill:#FFFFFF;filter:url(#Adobe_OpacityMaskFilter);}
	.st1{mask:url(#mask0_00000164489293724452972640000006452768547593780142_);}
	.st2{fill:#0065A9;}
	.st3{fill:#007ACC;}
	.st4{fill:#1F9CF0;}
	.st5{opacity:0.25;}
	.st6{fill-rule:evenodd;clip-rule:evenodd;fill:url(#SVGID_1_);}
</style>
<defs>
	<filter id="Adobe_OpacityMaskFilter" filterUnits="userSpaceOnUse" x="0" y="0.4" width="128" height="127.3">
		<feColorMatrix  type="matrix" values="1 0 0 0 0  0 1 0 0 0  0 0 1 0 0  0 0 0 1 0"/>
	</filter>
</defs>
<mask maskUnits="userSpaceOnUse" x="0" y="0.4" width="128" height="127.3" id="mask0_00000164489293724452972640000006452768547593780142_">
	<path class="st0" d="M90.8,127.1c2,0.8,4.3,0.7,6.3-0.2l26.3-12.7c2.8-1.3,4.5-4.1,4.5-7.2V21c0-3.1-1.8-5.9-4.5-7.2L97.1,1.2
		c-2.7-1.3-5.8-1-8.1,0.7c-0.3,0.2-0.7,0.5-1,0.8l-50.4,46L15.7,32c-2-1.6-4.9-1.4-6.8,0.3l-7,6.4c-2.3,2.1-2.3,5.8,0,7.9l19,17.4
		l-19,17.4c-2.3,2.1-2.3,5.8,0,7.9l7,6.4c1.9,1.7,4.8,1.9,6.8,0.3l22-16.7l50.4,46C88.8,126.1,89.8,126.7,90.8,127.1z M96,35
		L57.8,64L96,93V35z"/>
</mask>
<g class="st1">
	<path class="st2" d="M123.5,13.8L97.1,1.2c-3.1-1.5-6.7-0.8-9.1,1.5L1.7,81.4c-2.3,2.1-2.3,5.8,0,7.9l7,6.4
		c1.9,1.7,4.8,1.9,6.8,0.3l103.9-78.8c3.5-2.6,8.5-0.2,8.5,4.2v-0.3C128,18,126.2,15.2,123.5,13.8z"/>
	<g>
		<path class="st3" d="M123.5,114.2l-26.4,12.7c-3.1,1.5-6.7,0.8-9.1-1.5L1.7,46.6c-2.3-2.1-2.3-5.8,0-7.9l7-6.4
			c1.9-1.7,4.8-1.9,6.8-0.3l103.9,78.8c3.5,2.6,8.5,0.2,8.5-4.2v0.3C128,110,126.2,112.8,123.5,114.2z"/>
	</g>
	<g>
		<path class="st4" d="M97.1,126.8c-3.1,1.5-6.7,0.8-9.1-1.5c3,3,8,0.9,8-3.3V6c0-4.2-5-6.3-8-3.3c2.4-2.4,6-3,9.1-1.5l26.4,12.7
			c2.8,1.3,4.5,4.1,4.5,7.2V107c0,3.1-1.8,5.9-4.5,7.2L97.1,126.8z"/>
	</g>
	<g class="st5">
		
			<linearGradient id="SVGID_1_" gradientUnits="userSpaceOnUse" x1="63.9611" y1="129.6314" x2="63.9611" y2="2.3687" gradientTransform="matrix(1 0 0 -1 0 130)">
			<stop  offset="0" style="stop-color:#FFFFFF"/>
			<stop  offset="1" style="stop-color:#FFFFFF;stop-opacity:0"/>
		</linearGradient>
		<path class="st6" d="M90.7,127.1c2,0.8,4.3,0.7,6.3-0.2l26.3-12.7c2.8-1.3,4.5-4.1,4.5-7.2V21c0-3.1-1.8-5.9-4.5-7.2L97.1,1.2
			c-2.7-1.3-5.8-1-8.1,0.7c-0.3,0.2-0.7,0.5-1,0.8l-50.4,46L15.6,32c-2-1.6-4.9-1.4-6.8,0.3l-7,6.4c-2.3,2.1-2.3,5.8,0,7.9l19,17.4
			l-19,17.4c-2.3,2.1-2.3,5.8,0,7.9l7,6.4c1.9,1.7,4.8,1.9,6.8,0.3l22-16.7l50.4,46C88.8,126.1,89.7,126.7,90.7,127.1z M96,35
			L57.7,64L96,93V35z"/>
	</g>
</g>
</svg>
