<?xml version="1.0" encoding="utf-8"?>
<!-- Generator: Adobe Illustrator 26.5.0, SVG Export Plug-In . SVG Version: 6.00 Build 0)  -->
<svg version="1.1" id="icon" xmlns="http://www.w3.org/2000/svg" xmlns:xlink="http://www.w3.org/1999/xlink" x="0px" y="0px"
	 viewBox="0 0 128 128" style="enable-background:new 0 0 128 128;" xml:space="preserve">
<style type="text/css">
	.st0{fill:#264DE4;}
	.st1{fill:#2965F1;}
	.st2{fill:#EBEBEB;}
	.st3{fill:#FFFFFF;}
</style>
<g>
	<path class="st0" d="M17.8,115.2L7.6,0h112.9l-10.3,115.2L63.9,128L17.8,115.2z"/>
	<path class="st1" d="M101.3,107.9l8.8-98.4H64v108.8L101.3,107.9z"/>
	<path class="st2" d="M31.1,52.1l1.3,14.1H64V52.1H31.1z M29.9,37.7H64V23.5H28.6L29.9,37.7z M64,88.8L64,88.8l-15.8-4.2l-1-11.3H33
		l2,22.2l28.9,8l0.1,0L64,88.8z"/>
	<path class="st3" d="M64,52.1v14.1h17.4l-1.6,18.3L64,88.9v14.7l29-8l0.2-2.4l3.3-37.2l0.3-3.8l2.6-28.6H64v14.1h19.9l-1.3,14.5H64
		z"/>
</g>
</svg>
