<?xml version="1.0" encoding="UTF-8"?>
<svg id="icon" xmlns="http://www.w3.org/2000/svg" version="1.1" viewBox="0 0 128 128">
  <defs>
    <style>
      .cls-1 {
        fill: #a259ff;
      }

      .cls-1, .cls-2, .cls-3, .cls-4, .cls-5 {
        stroke-width: 0px;
      }

      .cls-2 {
        fill: #1abcfe;
      }

      .cls-3 {
        fill: #f24e1e;
      }

      .cls-4 {
        fill: #0acf83;
      }

      .cls-5 {
        fill: #ff7262;
      }
    </style>
  </defs>
  <path id="path0_fill" data-name="path0 fill" class="cls-4" d="M42.7,128c11.8,0,21.3-9.6,21.3-21.3v-21.3h-21.3c-11.8,0-21.3,9.6-21.3,21.3s9.6,21.3,21.3,21.3Z"/>
  <path id="path1_fill" data-name="path1 fill" class="cls-1" d="M21.3,64c0-11.8,9.6-21.3,21.3-21.3h21.3v42.7h-21.3c-11.8,0-21.3-9.6-21.3-21.3Z"/>
  <path id="path1_fill-2" data-name="path1 fill" class="cls-3" d="M21.3,21.3C21.3,9.6,30.9,0,42.7,0h21.3v42.7h-21.3c-11.8,0-21.3-9.6-21.3-21.3Z"/>
  <path id="path2_fill" data-name="path2 fill" class="cls-5" d="M64,0h21.3c11.8,0,21.3,9.6,21.3,21.3s-9.6,21.3-21.3,21.3h-21.3V0Z"/>
  <path id="path3_fill" data-name="path3 fill" class="cls-2" d="M106.7,64c0,11.8-9.6,21.3-21.3,21.3s-21.3-9.6-21.3-21.3,9.6-21.3,21.3-21.3,21.3,9.6,21.3,21.3Z"/>
</svg>