<?xml version="1.0" encoding="utf-8"?>
<!-- Generator: Adobe Illustrator 26.5.0, SVG Export Plug-In . SVG Version: 6.00 Build 0)  -->
<svg version="1.1" id="icon" xmlns="http://www.w3.org/2000/svg" xmlns:xlink="http://www.w3.org/1999/xlink" x="0px" y="0px"
	 viewBox="0 0 128 128" style="enable-background:new 0 0 128 128;" xml:space="preserve">
<path d="M51.2,2.6c-17,3.8-30.9,13.2-40.5,27.5c-16.8,25.1-13.4,58.9,8,80.4c6.4,6.5,16.2,12.7,23.5,15.1c2.7,0.9,3.1,0.9,4.3,0.1
	c1.3-0.9,1.4-1.1,1.4-7.5v-6.6l-4.9,0.3c-5.7,0.3-10.2-0.7-12.9-3c-0.9-0.8-2.8-3.5-4.1-5.9c-2.1-4.1-3.7-6-8-9.9
	c-1.4-1.3-1.5-1.3-0.5-2.1c2.4-1.8,7.2-0.1,10.3,3.6c5.4,6.5,7.4,8.3,10.5,8.9c2.7,0.6,5.2,0.3,9-0.8c0.5-0.2,1.2-1.3,1.5-2.7
	c0.3-1.3,1.2-3.2,2-4.3l1.3-2L47.6,93c-9.5-2-15.3-5.4-19.2-11.1c-3.6-5.4-4.7-10-4.8-18.6c0-8.1,0.9-11.5,4.4-16.1
	c1.6-2,1.7-2.6,1.3-3.8c-0.8-2-0.6-10.5,0.3-13c0.7-1.9,1.1-2.2,2.6-2.4c2.5-0.3,7.2,1.3,11.9,4l4.1,2.3l3.6-0.8
	c5.1-1.2,20.3-1.1,24.9,0l3.5,0.9l3.2-2c4.3-2.6,9.8-4.6,12.5-4.6c2.2,0,2.2,0.1,3.1,2.9c0.9,3.3,1.1,9.3,0.3,12.1
	c-0.4,1.7-0.3,2.2,0.9,3.8c6.1,8,6.7,21.4,1.6,32.3c-3.5,7.2-10.8,12.2-20.6,14l-4.7,0.9l1.7,3.1l1.8,3.1l0.2,12.4l0.2,12.4l1.4,0.9
	c1.3,0.8,1.6,0.8,4.2-0.1c4.5-1.5,12.1-5.6,16.3-8.8c24.9-18.6,32.9-52,19.1-79.8C113.2,20.7,98,8.2,80.4,3.5
	C72.8,1.5,58.4,1,51.2,2.6z"/>
</svg>
