<?xml version="1.0" encoding="utf-8"?>
<!-- Generator: Adobe Illustrator 26.5.0, SVG Export Plug-In . SVG Version: 6.00 Build 0)  -->
<svg version="1.1" id="icon" xmlns="http://www.w3.org/2000/svg" xmlns:xlink="http://www.w3.org/1999/xlink" x="0px" y="0px"
	 viewBox="0 0 128 128" style="enable-background:new 0 0 128 128;" xml:space="preserve">
<style type="text/css">
	.st0{fill:#330000;}
	.st1{fill:#FF9A00;}
</style>
<g>
	<path class="st0" d="M22.7,1.6h82.7c12.5,0,22.7,10.1,22.7,22.7v79.5c0,12.5-10.1,22.7-22.7,22.7H22.7C10.1,126.4,0,116.3,0,103.7
		V24.3C0,11.7,10.1,1.6,22.7,1.6z"/>
	<path class="st1" d="M61.9,76.3H42L38,88.8c-0.1,0.5-0.5,0.8-1,0.7h-10c-0.6,0-0.7-0.3-0.6-1l17.2-49.4c0.2-0.5,0.3-1.1,0.5-1.8
		c0.2-1.1,0.3-2.3,0.3-3.5c-0.1-0.3,0.2-0.5,0.4-0.6h13.8c0.4,0,0.6,0.2,0.7,0.4l19.5,54.9c0.2,0.6,0,0.9-0.5,0.9H67.1
		c-0.4,0.1-0.7-0.2-0.9-0.6L61.9,76.3z M45.1,65.4h13.5c-0.3-1.1-0.7-2.5-1.2-3.8c-0.5-1.4-1-3-1.4-4.6c-0.5-1.7-1-3.3-1.5-4.9
		c-0.5-1.7-1-3.2-1.4-4.7c-0.4-1.5-0.8-2.9-1.2-4.2h-0.1c-0.5,2.3-1.1,4.6-1.8,6.9c-0.8,2.6-1.6,5.2-2.5,7.9
		C46.7,60.7,45.9,63.2,45.1,65.4z M90.7,42.7c-1.8,0.1-3.5-0.6-4.7-1.9c-1.2-1.3-1.9-3.1-1.8-4.9c-0.1-1.8,0.6-3.5,1.9-4.7
		c1.3-1.2,3-1.9,4.7-1.9c2.1,0,3.7,0.6,4.9,1.9c1.2,1.3,1.8,3,1.8,4.7c0.1,1.8-0.6,3.6-1.9,4.9C94.3,42.1,92.5,42.8,90.7,42.7
		L90.7,42.7z M84.7,89V47.9c0-0.5,0.2-0.7,0.7-0.7h10.6c0.5,0,0.7,0.3,0.7,0.7V89c0,0.6-0.2,0.9-0.7,0.9H85.5
		C85,89.8,84.7,89.5,84.7,89z"/>
</g>
</svg>
