<?xml version="1.0" encoding="utf-8"?>
<!-- Generator: Adobe Illustrator 26.5.0, SVG Export Plug-In . SVG Version: 6.00 Build 0)  -->
<svg version="1.1" id="icon" xmlns="http://www.w3.org/2000/svg" xmlns:xlink="http://www.w3.org/1999/xlink" x="0px" y="0px"
	 viewBox="0 0 128 128" style="enable-background:new 0 0 128 128;" xml:space="preserve">
<style type="text/css">
	.st0{fill:#001E36;}
	.st1{fill:#31A8FF;}
</style>
<g id="Layer_2_1_">
	<path class="st0" d="M22.7,1.6h82.7c12.5,0,22.7,10.1,22.7,22.7v79.5c0,12.5-10.1,22.7-22.7,22.7H22.7C10.1,126.4,0,116.3,0,103.7
		V24.3C0,11.7,10.1,1.6,22.7,1.6z"/>
	<g id="Lr">
		<path class="st1" d="M67.2,89.8H33.4c-0.6,0-0.8-0.3-0.8-0.9V34.3c0-0.3,0.2-0.7,0.6-0.7c0,0,0.1,0,0.2,0h10.4
			c0.2,0,0.6,0.1,0.6,0.4c0,0,0,0.1,0,0.1V79H69c0.5,0,0.7,0.2,0.6,0.7L68.1,89c0,0.2-0.1,0.5-0.3,0.6
			C67.6,89.8,67.4,89.8,67.2,89.8z"/>
		<path class="st1" d="M75.7,47.1h9.3c0.5,0,0.9,0.3,1.1,0.8c0.2,0.3,0.3,0.8,0.4,1.2c0.1,0.5,0.2,1.1,0.2,1.6
			c0,0.6,0.1,1.2,0.1,1.9c1.6-1.8,3.5-3.4,5.7-4.6c2.4-1.3,5.2-2,7.9-1.9c0.3,0,0.7,0.2,0.7,0.6c0,0,0,0.1,0,0.2v10.4
			c0,0.4-0.2,0.6-0.8,0.6c-3.4-0.2-6.9,0.4-10.1,1.8c-1,0.5-2.1,1.1-2.9,2v27.2c0,0.5-0.2,0.7-0.7,0.7H76.4c-0.4,0-0.8-0.2-0.8-0.6
			c0,0,0-0.1,0-0.2V59.5c0-1.3,0-2.6,0-4c0-1.4,0-2.8-0.1-4.1c0-1.2-0.1-2.3-0.3-3.5c0-0.2,0.1-0.5,0.3-0.6
			C75.6,47.1,75.6,47.1,75.7,47.1L75.7,47.1z"/>
	</g>
</g>
</svg>
