<?xml version="1.0" encoding="UTF-8"?>
<svg id="icon" xmlns="http://www.w3.org/2000/svg" version="1.1" viewBox="0 0 128 128">
  <defs>
    <style>
      .cls-1 {
        fill: #000;
        stroke-width: 0px;
      }
    </style>
  </defs>
  <path class="cls-1" d="M59.8,0c-.3,0-1.2.1-1.9.2C39.7,1.8,22.7,11.7,11.9,26.7,5.9,35.1,2,44.6.6,54.7,0,58.2,0,59.2,0,64s0,5.8.6,9.3c3.5,24,20.6,44.2,43.8,51.7,4.2,1.3,8.5,2.3,13.5,2.8,1.9.2,10.3.2,12.3,0,8.6-1,15.9-3.1,23.1-6.7,1.1-.6,1.3-.7,1.2-.8-.1,0-4.8-6.4-10.4-14l-10.2-13.8-12.8-19c-7.1-10.4-12.9-19-12.9-19,0,0-.1,8.4-.1,18.7,0,18,0,18.8-.3,19.2-.3.6-.6.9-1.1,1.1-.4.2-.8.2-2.6.2h-2.2l-.6-.4c-.4-.2-.7-.6-.8-.9l-.3-.6v-25.1s0-25.1,0-25.1l.4-.5c.2-.3.6-.6.9-.8.5-.3.7-.3,2.9-.3s3,.1,3.6.8c.2.2,7.1,10.7,15.4,23.3,8.3,12.6,19.7,29.8,25.2,38.2l10.1,15.4.5-.3c4.5-3,9.3-7.2,13.1-11.5,8.1-9.3,13.3-20.6,15.1-32.7.5-3.5.6-4.6.6-9.3s0-5.8-.6-9.3c-3.5-24-20.6-44.2-43.8-51.7-4.1-1.3-8.4-2.2-13.3-2.8-1.2-.1-9.5-.3-10.5-.2h0ZM86,38.7c.6.3,1.1.9,1.3,1.5.1.3.1,7.3.1,23v22.5s-4-6.1-4-6.1l-4-6.1v-16.4c0-10.6,0-16.5.1-16.8.2-.7.6-1.3,1.2-1.6.5-.3.7-.3,2.7-.3s2.2,0,2.6.3h0Z"/>
  <path class="cls-1" d="M98.1,118.2c-.4.3-.6.5-.2.3.3-.2.7-.5.7-.5,0,0-.3.1-.5.3ZM97.2,118.8c-.2.2-.2.2,0,0,.2,0,.3-.2.3-.2,0-.1,0,0-.3.1h0ZM96.6,119.1c-.2.2-.2.2,0,0,.2,0,.3-.2.3-.2,0-.1,0,0-.3.1h0ZM96,119.5c-.2.2-.2.2,0,0,.2,0,.3-.2.3-.2,0-.1,0,0-.3.1h0ZM95,120c-.5.3-.5.4,0,.1.2-.1.4-.2.4-.3,0,0,0,0-.4.1Z"/>
</svg>