<?xml version="1.0" encoding="UTF-8"?>
<svg id="icon" xmlns="http://www.w3.org/2000/svg" version="1.1" viewBox="0 0 128 128">
  <defs>
    <style>
      .cls-1 {
        fill: #0c344b;
        fill-rule: evenodd;
        stroke-width: 0px;
      }
    </style>
  </defs>
  <path class="cls-1" d="M106.1,101.5l-57,17c-1.3.4-2.6-.3-3-1.6-.1-.4-.1-.8,0-1.2l20.4-98.3c.2-1.1,1.3-1.7,2.3-1.5.6.1,1.1.5,1.4,1.1l37.7,80.7c.6,1.4,0,3-1.3,3.6-.1,0-.3.1-.4.2ZM115.9,97.5L72.2,4.1h0c-1.1-2.3-3.4-3.9-6-4-2.6-.2-5.1,1.1-6.4,3.3L12.5,80.7c-1.5,2.4-1.4,5.4,0,7.8l23.1,36.1c1.8,2.8,5.2,4,8.4,3.1l67.2-20c3.9-1.1,6.1-5.2,5-9.1-.1-.4-.2-.7-.4-1.1h0Z"/>
</svg>