<?xml version="1.0" encoding="UTF-8"?><svg id="project" xmlns="http://www.w3.org/2000/svg" xmlns:xlink="http://www.w3.org/1999/xlink" viewBox="0 0 600 600"><defs><style>.cls-1{fill:#fff;}.cls-2{fill:url(#Gradient_bez_nazwy_172);}</style><linearGradient id="Gradient_bez_nazwy_172" x1="193.39" y1="19.5" x2="408.46" y2="579.79" gradientTransform="matrix(1, 0, 0, 1, 0, 0)" gradientUnits="userSpaceOnUse"><stop offset="0" stop-color="#254ca4"/><stop offset=".12" stop-color="#344ead"/><stop offset=".72" stop-color="#8358df"/><stop offset="1" stop-color="#a25df3"/></linearGradient></defs><g id="brorderless_icon"><circle id="white" class="cls-1" cx="300" cy="300" r="299"/><path id="violet" class="cls-2" d="M417.34,268.18c-23.56,0-57.81-.96-102.73-2.88,.82-46.29,9.45-79.78,25.89-100.48,18.9-24.51,44.93-36.77,78.08-36.77,30.41,0,54.31,10.08,71.71,30.23,17.39,20.16,26.09,49.43,26.09,87.82l-.41,19.2c-41.37,1.92-74.24,2.88-98.62,2.88ZM124.75,106.27c12.6-4.93,31.5-7.4,56.71-7.4s46.71,4.37,65.34,13.09c18.63,8.73,36.16,23.45,52.6,44.16,23.83-22.08,45.68-37.14,65.54-45.18,19.86-8.04,42.8-12.06,68.83-12.06,49.31,0,87.8,13.52,115.47,40.57,4.77,4.67,9.13,9.65,13.08,14.95C511.11,62.31,412.84,0,300,0,192.98,0,99.06,56.06,45.96,140.39l78.79-34.12Zm462.71,107.72c2.19,11.86,3.29,24.56,3.29,38.09,0,9.61-.69,19.91-2.05,30.89-41.09,10.14-98.62,15.2-172.59,15.2l-101.5-.82c.55,52.88,13.97,93.56,40.27,122.05,26.3,28.5,60.41,42.74,102.32,42.74,17.81,0,36.3-3.15,55.48-9.45,18.75-6.16,40.1-15.8,60.25-28.01,17.37-37.97,27.07-80.19,27.07-124.67,0-29.9-4.39-58.76-12.54-86.01ZM15.44,347.36c8.22-17.04,17.12-28.73,26.71-35.05,15.62-10.44,41.16-19.99,76.64-28.66,35.48-8.66,78.83-14.01,130.06-17.59-2.74-43.94-10.55-75.08-23.42-91.91-16.99-21.97-40.96-32.96-71.91-32.96-10.41,0-21.85,1.75-34.31,5.24-12.47,3.49-26.09,8.73-40.89,15.72l-21.37,51.78-21.78-5.34-8.86-31.62C9.41,214.52,0,256.16,0,300c0,23.38,2.68,46.13,7.74,67.97,1.95-7.12,4.52-13.99,7.71-20.61Zm479.56,146.62c-23.01,6.99-46.44,10.48-70.27,10.48-71.5,0-124.66-29.66-159.44-89-32.87,22.7-58.98,61.09-101.09,80.39-9.93,4.55-15.48,5.51-23.97,7.02-8.49,1.5-20,1.59-27.4,1.59-13.24,0-25.39-1.53-36.5-4.55,54.93,61.42,134.78,100.09,223.66,100.09,101.17,0,190.64-50.08,244.98-126.81-16.44,8.74-33.09,15.67-49.97,20.79ZM79.76,360.81c-3.43,9.07-5.14,17.99-5.14,26.78,0,18.41,6.3,33.86,18.9,46.36,12.6,12.49,28.9,18.74,48.9,18.74,18.9,0,37.05-4.55,54.45-13.65,17.39-9.1,34.72-24.26,51.98-45.5v-97.82c-57.81,2.75-109.17,15.25-154.1,37.49-6.58,9.34-11.58,18.54-15,27.61Z"/></g></svg>