<?xml version="1.0" encoding="UTF-8"?><svg id="icon" xmlns="http://www.w3.org/2000/svg" viewBox="0 0 30 22.55"><g id="email"><polygon points="30 13.58 26.13 9.55 30 6.22 30 13.58"/><polygon points="3.88 9.55 0 13.58 0 6.22 3.88 9.55"/><path d="M30,17.23v3.7c0,.9-.73,1.62-1.62,1.62H1.62c-.9,0-1.62-.73-1.62-1.62v-3.7l5.8-6.02,6.62,5.7c.69,.59,1.6,.92,2.58,.92s1.89-.33,2.58-.92l6.62-5.7,5.8,6.02Z"/><path d="M30,1.62v1.62L15.85,15.43c-.45,.39-1.25,.39-1.71,0L0,3.24V1.62C0,.72,.73,0,1.62,0H28.38c.9,0,1.62,.72,1.62,1.62Z"/></g></svg>