<?xml version="1.0" encoding="UTF-8"?>
<svg id="a" data-name="icon" xmlns="http://www.w3.org/2000/svg" width="140" height="105.23" viewBox="0 0 140 105.23">
  <defs>
    <style>
      .c {
        stroke-width: 0px;
      }
    </style>
  </defs>
  <g id="b" data-name="email">
    <polygon class="c" points="140 63.37 121.94 44.57 140 29.03 140 63.37"/>
    <polygon class="c" points="18.11 44.57 0 63.37 0 29.03 18.11 44.57"/>
    <path class="c" d="m140,80.41v17.27c0,4.2-3.41,7.56-7.56,7.56H7.56c-4.2,0-7.56-3.41-7.56-7.56v-17.27l27.07-28.09,30.89,26.6c3.22,2.75,7.47,4.29,12.04,4.29s8.82-1.54,12.04-4.29l30.89-26.6,27.07,28.09Z"/>
    <path class="c" d="m140,7.56v7.56l-66.03,56.89c-2.1,1.82-5.83,1.82-7.98,0L0,15.12v-7.56C0,3.36,3.41,0,7.56,0h124.88c4.2,0,7.56,3.36,7.56,7.56Z"/>
  </g>
</svg>