<?xml version="1.0" encoding="UTF-8"?>
<svg id="a" data-name="icon" xmlns="http://www.w3.org/2000/svg" width="140" height="139.11" viewBox="0 0 140 139.11">
  <defs>
    <style>
      .c {
        stroke-width: 0px;
      }
    </style>
  </defs>
  <path id="b" data-name="facebook" class="c" d="m140,70C140,31.36,108.64,0,70,0S0,31.36,0,70c0,34.81,25.39,63.65,58.66,69.07h.42v-48.86h-17.78v-20.25h17.78v-15.4c-.09-.79-.14-1.68-.14-2.61,0-13.63,11.06-24.69,24.69-24.69.65,0,1.31,0,1.96.09h-.09c5.6.09,11.01.56,16.29,1.45l-.61-.09v17.22h-8.82c-.42-.05-.89-.09-1.35-.09-5.6,0-10.13,4.53-10.13,10.13v.93h0v13.07h19.41l-3.13,20.25h-16.29v48.91c33.65-5.46,59.08-34.35,59.08-69.16h.05v.05Z"/>
</svg>