<?xml version="1.0" encoding="UTF-8"?>
<svg id="a" data-name="icon" xmlns="http://www.w3.org/2000/svg" width="140" height="136.4" viewBox="0 0 140 136.4">
  <defs>
    <style>
      .c {
        stroke-width: 0px;
      }
    </style>
  </defs>
  <path id="b" data-name="github" class="c" d="m69.93,0C31.33,0,0,31.33,0,69.93c0,30.72,19.81,56.78,47.32,66.2l.51.14c3.5.65,4.8-1.49,4.8-3.36,0-1.68-.05-6.06-.09-11.89-19.44,4.24-23.54-9.37-23.54-9.37-1.35-4.34-4.1-7.88-7.69-10.16h-.09c-6.34-4.38.51-4.29.51-4.29,4.62.65,8.44,3.36,10.68,7.13v.09c2.61,4.66,7.51,7.74,13.1,7.74,2.7,0,5.22-.7,7.37-1.96h-.09c.33-3.64,1.96-6.9,4.43-9.32h0c-15.52-1.77-31.84-7.79-31.84-34.55v-.42c0-7.09,2.75-13.57,7.23-18.37h0c-.93-2.52-1.49-5.41-1.49-8.48,0-3.64.79-7.09,2.19-10.16v.14s5.78-1.86,19.16,7.18c5.22-1.49,11.28-2.38,17.48-2.38s12.26.89,17.95,2.47l-.47-.09c13.29-9.04,19.16-7.18,19.16-7.18,1.35,2.98,2.1,6.48,2.1,10.16,0,2.98-.51,5.87-1.45,8.53v-.19c4.52,4.8,7.23,11.28,7.23,18.37v.42h0c0,26.85-16.36,32.77-31.89,34.5,2.94,3.03,4.76,7.13,4.76,11.7,0,.42,0,.89-.05,1.31h0c0,9.32-.09,16.83-.09,19.11,0,1.82,1.21,4.01,4.8,3.31,28.11-9.46,48.02-35.57,48.02-66.34C139.86,31.28,108.58,0,70.02,0c0,0-.09,0-.09,0Z"/>
</svg>