<?xml version="1.0" encoding="UTF-8"?><svg id="icon" xmlns="http://www.w3.org/2000/svg" viewBox="0 0 30.03 29.26"><path id="github" d="M15,0C6.72,0,0,6.72,0,15c0,6.59,4.25,12.18,10.15,14.2l.11,.03c.75,.14,1.03-.32,1.03-.72,0-.36-.01-1.3-.02-2.55-4.17,.91-5.05-2.01-5.05-2.01-.29-.93-.88-1.69-1.65-2.18h-.02c-1.36-.94,.11-.92,.11-.92,.99,.14,1.81,.72,2.29,1.53v.02c.56,1,1.61,1.66,2.81,1.66,.58,0,1.12-.15,1.58-.42h-.02c.07-.78,.42-1.48,.95-2h0c-3.33-.38-6.83-1.67-6.83-7.41v-.09c0-1.52,.59-2.91,1.55-3.94h0c-.2-.54-.32-1.16-.32-1.82,0-.78,.17-1.52,.47-2.18v.03s1.24-.4,4.11,1.54c1.12-.32,2.42-.51,3.75-.51s2.63,.19,3.85,.53l-.1-.02c2.85-1.94,4.11-1.54,4.11-1.54,.29,.64,.45,1.39,.45,2.18,0,.64-.11,1.26-.31,1.83v-.04c.97,1.03,1.55,2.42,1.55,3.94v.09h0c0,5.76-3.51,7.03-6.84,7.4,.63,.65,1.02,1.53,1.02,2.51,0,.09,0,.19-.01,.28h0c0,2-.02,3.61-.02,4.1,0,.39,.26,.86,1.03,.71,6.03-2.03,10.3-7.63,10.3-14.23-.03-8.29-6.74-15-15.01-15h-.02Z"/></svg>