<?xml version="1.0" encoding="UTF-8"?>
<svg id="a" data-name="icon" xmlns="http://www.w3.org/2000/svg" width="139.99" height="140" viewBox="0 0 139.99 140">
  <defs>
    <style>
      .b {
        stroke-width: 0px;
      }
    </style>
  </defs>
  <path class="b" d="m128.79.01H11.99c-1.51-.07-3.01.16-4.43.67-1.42.51-2.72,1.3-3.83,2.31-1.11,1.02-2.02,2.24-2.65,3.61C.43,7.97.07,9.44,0,10.95v117.06c.09,3.15,1.38,6.15,3.61,8.38,2.23,2.23,5.23,3.52,8.38,3.61h116.8c3.06-.14,5.95-1.47,8.04-3.71s3.23-5.21,3.15-8.28V10.95c.03-1.47-.25-2.92-.81-4.28-.56-1.36-1.39-2.58-2.43-3.61-1.05-1.02-2.29-1.82-3.66-2.35-1.37-.53-2.83-.77-4.29-.71ZM43.75,116.73h-20.39v-62.38h20.39v62.38Zm-9.71-71.83c-1.42.05-2.84-.2-4.16-.72-1.32-.52-2.52-1.32-3.53-2.33-1-1.01-1.79-2.22-2.3-3.55-.51-1.33-.75-2.75-.69-4.17-.06-1.44.18-2.87.7-4.21.52-1.34,1.32-2.56,2.34-3.57,1.02-1.01,2.24-1.8,3.59-2.32,1.34-.51,2.78-.74,4.22-.67,1.42-.05,2.84.2,4.16.72,1.32.52,2.52,1.32,3.53,2.33,1,1.01,1.79,2.22,2.3,3.55.51,1.33.75,2.75.69,4.17.06,1.44-.18,2.87-.7,4.21-.52,1.34-1.32,2.56-2.34,3.57-1.02,1.01-2.24,1.8-3.59,2.32-1.34.51-2.78.74-4.22.67Zm82.68,71.83h-20.47v-34.12c0-8.14-2.89-13.74-10.15-13.74-2.26.02-4.45.74-6.28,2.05-1.83,1.32-3.21,3.17-3.95,5.3-.57,1.6-.81,3.29-.7,4.99v35.52h-20.12v-62.38h20.12v8.75c1.79-3.29,4.45-6.02,7.69-7.88,3.24-1.87,6.94-2.8,10.68-2.7,13.21,0,23.19,8.75,23.19,27.39v36.83Z"/>
</svg>