<?xml version="1.0" encoding="UTF-8"?>
<svg id="a" data-name="icon" xmlns="http://www.w3.org/2000/svg" width="140" height="139.99" viewBox="0 0 140 139.99">
  <defs>
    <style>
      .b {
        fill-rule: evenodd;
        stroke-width: 0px;
      }
    </style>
  </defs>
  <path class="b" d="m70.01,0C30.58,0,0,28.89,0,67.91c0,20.41,8.37,38.04,21.98,50.22,1.13,1.02,1.82,2.44,1.88,3.99l.39,12.46c.03.92.28,1.81.74,2.61.46.8,1.1,1.47,1.87,1.96.78.49,1.66.78,2.57.84.91.07,1.83-.09,2.67-.47l13.9-6.13c1.19-.52,2.5-.62,3.73-.28,6.38,1.75,13.18,2.7,20.26,2.7,39.43,0,70.01-28.88,70.01-67.9S109.43,0,70.01,0Zm36.76,53.05l-17.53,27.8c-.66,1.05-1.53,1.95-2.55,2.64-1.02.69-2.18,1.17-3.4,1.39-1.22.22-2.47.19-3.67-.09s-2.34-.81-3.33-1.55l-13.95-10.45c-.62-.46-1.38-.71-2.15-.71s-1.53.25-2.15.71l-18.82,14.28c-2.49,1.9-5.79-1.1-4.12-3.75l17.53-27.8c.66-1.05,1.53-1.95,2.55-2.64,1.02-.69,2.18-1.17,3.4-1.39,1.22-.22,2.47-.2,3.67.09,1.2.28,2.34.81,3.33,1.55l13.95,10.45c.62.46,1.38.71,2.15.71s1.53-.25,2.15-.71l18.82-14.28c2.52-1.93,5.82,1.08,4.12,3.75Z"/>
</svg>