<?xml version="1.0" encoding="UTF-8"?>
<svg id="a" data-name="icon" xmlns="http://www.w3.org/2000/svg" width="139.98" height="140" viewBox="0 0 139.98 140">
  <defs>
    <style>
      .b {
        fill-rule: evenodd;
        stroke-width: 0px;
      }
    </style>
  </defs>
  <path class="b" d="m.09,25.21C-1.16,10.5,11.31,0,24.58,0h16.62c7.93,0,15.08,4.77,18.13,12.1l8.19,19.69c2.8,6.74,1.63,14.48-3.03,20.09l-8.77,10.54c5.66,8.59,12.78,16.34,20.89,22.75l11.46-9.57c5.62-4.69,13.39-5.87,20.15-3.05l19.61,8.19c7.31,3.05,12.07,10.2,12.07,18.12,0,2.73.02,5.47.04,8.23h0c.02,2.76.04,5.54.04,8.33,0,13.27-10.5,25.75-25.21,24.49C55,134.81,5.18,85.13.09,25.21Zm24.49-11.21c-6.6,0-10.98,4.94-10.55,10.03,4.52,53.11,48.94,97.42,101.93,101.94,5.09.43,10.03-3.94,10.03-10.54,0-2.73-.02-5.46-.04-8.23v-.02c-.02-2.75-.04-5.53-.04-8.32,0-2.27-1.37-4.32-3.46-5.2l-19.61-8.19c-1.94-.81-4.17-.47-5.78.87l-19.82,16.55-4.39-3.09c-12.84-9.03-23.84-20.93-31.76-34.45l-2.48-4.24,15.13-18.19c1.34-1.61,1.68-3.83.87-5.77l-8.19-19.69c-.87-2.1-2.93-3.47-5.2-3.47h-16.62Z"/>
</svg>