<?xml version="1.0" encoding="UTF-8"?><svg id="icon" xmlns="http://www.w3.org/2000/svg" viewBox="0 0 29.99 24.34"><path id="twitter" d="M29.93,2.9c-1.03,.46-2.22,.8-3.46,.96h-.06c1.27-.76,2.22-1.94,2.69-3.35v-.04c-1.11,.67-2.42,1.18-3.8,1.46h-.08c-1.12-1.18-2.72-1.93-4.48-1.93-3.39,0-6.14,2.75-6.14,6.14,0,.5,.06,.98,.17,1.44v-.04c-5.12-.25-9.61-2.68-12.63-6.36l-.02-.03c-.52,.87-.83,1.92-.83,3.05v.04h0c0,2.12,1.07,3.99,2.71,5.09h.02c-1.03-.02-1.98-.3-2.81-.77l.03,.02v.07h0c0,2.96,2.09,5.43,4.88,6.01h.04c-.48,.14-1.04,.22-1.61,.22-.41,0-.8-.04-1.19-.11h.04c.81,2.46,3.07,4.22,5.73,4.27h0c-2.07,1.64-4.72,2.63-7.6,2.63h0c-.51,0-1.02-.03-1.52-.09H.06c2.66,1.73,5.92,2.76,9.41,2.76h.14c9.57,0,17.33-7.76,17.33-17.33v-.12h0c0-.26,0-.52-.02-.78,1.21-.88,2.23-1.93,3.04-3.13l.03-.04-.06-.02v-.02Z"/></svg>