<?xml version="1.0" encoding="UTF-8"?>
<svg id="project" xmlns="http://www.w3.org/2000/svg" xmlns:xlink="http://www.w3.org/1999/xlink" viewBox="0 0 441.49 402">
  <defs>
    <style>
      .cls-1 {
        fill: #000;
      }

      .cls-1, .cls-2, .cls-3 {
        stroke-width: 0px;
      }

      .cls-2 {
        fill: url(#Nowa_próbka_gradientu_1);
      }

      .cls-3, .cls-4 {
        fill: #ededed;
      }

      .cls-5 {
        fill: #97b1e5;
        stroke: #97b1e5;
        stroke-linecap: round;
        stroke-width: 11.33px;
      }

      .cls-5, .cls-4 {
        stroke-miterlimit: 10;
      }

      .cls-4 {
        stroke: #000;
        stroke-width: 3.23px;
      }
    </style>
    <linearGradient id="Nowa_próbka_gradientu_1" data-name="Nowa próbka gradientu 1" x1="52.88" y1="152.1" x2="392.41" y2="389.84" gradientTransform="translate(5.61 -.83)" gradientUnits="userSpaceOnUse">
      <stop offset="0" stop-color="#2379c8"/>
      <stop offset=".03" stop-color="#2374c2"/>
      <stop offset=".19" stop-color="#275ca3"/>
      <stop offset=".37" stop-color="#294a8c"/>
      <stop offset=".55" stop-color="#2b3d7b"/>
      <stop offset=".75" stop-color="#2c3571"/>
      <stop offset="1" stop-color="#2d336e"/>
    </linearGradient>
  </defs>
  <g id="icons">
    <g id="tablica">
      <path class="cls-1" d="M26.18,162.26h404.8v210.98c0,3.75-3.05,6.8-6.8,6.8H32.98c-3.75,0-6.8-3.05-6.8-6.8v-210.98h0Z" transform="translate(-29.86 28.29) rotate(-6.65)"/>
      <rect class="cls-2" x="41.29" y="173.62" width="373.91" height="193.03" rx="3.2" ry="3.2" transform="translate(-29.75 28.25) rotate(-6.65)"/>
      <g>
        <line class="cls-5" x1="90.51" y1="301.96" x2="305.47" y2="276.9"/>
        <line class="cls-5" x1="86.44" y1="267.07" x2="265.39" y2="246.21"/>
        <line class="cls-5" x1="82.37" y1="232.18" x2="342.35" y2="201.87"/>
      </g>
    </g>
    <g id="dół">
      <rect id="tło" class="cls-1" x="10.94" y="117.82" width="404.9" height="46.27" transform="translate(-14.89 25.66) rotate(-6.65)"/>
      <g id="paski">
        <polygon class="cls-4" points="385.03 99.98 344.56 104.7 329.02 148.44 369.49 143.72 385.03 99.98"/>
        <polygon class="cls-4" points="312.93 108.39 272.46 113.11 256.92 156.85 297.39 152.13 312.93 108.39"/>
        <polygon class="cls-4" points="240.83 116.79 200.36 121.51 184.82 165.25 225.29 160.53 240.83 116.79"/>
        <polygon class="cls-4" points="168.73 125.2 128.26 129.92 112.72 173.66 153.19 168.94 168.73 125.2"/>
        <polygon class="cls-4" points="96.63 133.61 56.16 138.32 40.62 182.06 81.1 177.34 96.63 133.61"/>
      </g>
    </g>
    <g id="góra">
      <path id="tło-2" data-name="tło" class="cls-1" d="M4.7,47.6h390.91c3.75,0,6.8,3.05,6.8,6.8v38.52H-2.1v-38.52c0-3.75,3.05-6.8,6.8-6.8Z" transform="translate(-11.13 51.4) rotate(-14.24)"/>
      <g id="paski-2" data-name="paski">
        <polygon class="cls-4" points="385.83 44.17 346.37 54.19 316.49 19.69 355.94 9.68 385.83 44.17"/>
        <polygon class="cls-4" points="315.54 62.01 276.09 72.03 246.2 37.53 285.66 27.52 315.54 62.01"/>
        <polygon class="cls-4" points="245.25 79.85 205.8 89.87 175.91 55.37 215.37 45.36 245.25 79.85"/>
        <polygon class="cls-4" points="174.97 97.69 135.51 107.71 105.63 73.21 145.08 63.2 174.97 97.69"/>
        <polygon class="cls-4" points="104.68 115.53 65.22 125.55 35.34 91.05 74.79 81.04 104.68 115.53"/>
      </g>
      <circle class="cls-3" cx="25.53" cy="114.58" r="6.8" transform="translate(-13.1 3.73) rotate(-6.65)"/>
    </g>
    <line class="cls-5" x1="94.58" y1="336.85" x2="209.37" y2="323.47"/>
  </g>
</svg>