<?xml version="1.0" encoding="UTF-8"?><svg id="a" xmlns="http://www.w3.org/2000/svg" xmlns:xlink="http://www.w3.org/1999/xlink" viewBox="0 0 441.07 402"><defs><style>.k{stroke:#000;stroke-width:3.23px;}.k,.l{stroke-miterlimit:10;}.k,.m{fill:#ededed;}.n{fill:url(#d);}.l{fill:#97b1e5;stroke:#97b1e5;stroke-linecap:round;stroke-width:11.33px;}</style><linearGradient id="d" x1="52.88" y1="152.1" x2="392.41" y2="389.84" gradientTransform="translate(5.61 -.83)" gradientUnits="userSpaceOnUse"><stop offset="0" stop-color="#2379c8"/><stop offset=".03" stop-color="#2374c2"/><stop offset=".19" stop-color="#275ca3"/><stop offset=".37" stop-color="#294a8c"/><stop offset=".55" stop-color="#2b3d7b"/><stop offset=".75" stop-color="#2c3571"/><stop offset="1" stop-color="#2d336e"/></linearGradient></defs><g id="b"><g id="c"><path d="M26.18,162.29H430.56v210.98c0,3.75-3.05,6.8-6.8,6.8H32.98c-3.75,0-6.8-3.05-6.8-6.8V162.29h0Z" transform="translate(-29.86 28.27) rotate(-6.65)"/><rect class="n" x="41.29" y="173.62" width="373.91" height="193.03" rx="3.2" ry="3.2" transform="translate(-29.75 28.25) rotate(-6.65)"/><g><line class="l" x1="90.51" y1="301.96" x2="305.47" y2="276.9"/><line class="l" x1="86.44" y1="267.07" x2="265.39" y2="246.21"/><line class="l" x1="82.37" y1="232.18" x2="342.35" y2="201.87"/></g></g><g id="e"><rect id="f" x="10.89" y="117.85" width="404.51" height="45.32" transform="translate(-14.84 25.63) rotate(-6.65)"/><g id="g"><polygon class="k" points="384.66 99.98 344.23 104.69 328.61 147.58 369.04 142.87 384.66 99.98"/><polygon class="k" points="312.63 108.38 272.2 113.09 256.58 155.98 297.01 151.26 312.63 108.38"/><polygon class="k" points="240.6 116.77 200.17 121.49 184.55 164.37 224.98 159.66 240.6 116.77"/><polygon class="k" points="168.57 125.17 128.14 129.88 112.52 172.77 152.95 168.06 168.57 125.17"/><polygon class="k" points="96.54 133.57 56.11 138.28 40.49 181.17 80.93 176.46 96.54 133.57"/></g></g><g id="h"><path id="i" d="M4.7,47.6H395.6c3.75,0,6.8,3.05,6.8,6.8v38.52H-2.1V54.4c0-3.75,3.05-6.8,6.8-6.8Z" transform="translate(-11.13 51.4) rotate(-14.24)"/><g id="j"><polygon class="k" points="385.83 44.17 346.37 54.19 316.49 19.69 355.94 9.68 385.83 44.17"/><polygon class="k" points="315.54 62.01 276.09 72.03 246.2 37.53 285.66 27.52 315.54 62.01"/><polygon class="k" points="245.25 79.85 205.8 89.87 175.91 55.37 215.37 45.36 245.25 79.85"/><polygon class="k" points="174.97 97.69 135.51 107.71 105.63 73.21 145.08 63.2 174.97 97.69"/><polygon class="k" points="104.68 115.53 65.22 125.55 35.34 91.05 74.79 81.04 104.68 115.53"/></g><circle class="m" cx="25.53" cy="114.58" r="6.8" transform="translate(-13.1 3.73) rotate(-6.65)"/></g><line class="l" x1="94.58" y1="336.85" x2="209.37" y2="323.47"/></g></svg>