<?xml version="1.0" encoding="UTF-8"?><svg id="a" xmlns="http://www.w3.org/2000/svg" xmlns:xlink="http://www.w3.org/1999/xlink" viewBox="0 0 449.97 372.51"><defs><style>.l{fill:#1e1e1e;}.l,.m,.n,.o,.p{stroke:#000;stroke-miterlimit:10;}.l,.o,.p{stroke-width:4.27px;}.m{stroke-width:5px;}.q{fill:#0f0f0f;}.n{fill:url(#j);stroke-width:4.7px;}.r{fill:url(#g);}.s{fill:#97b1e5;}.t{fill:url(#e);}.p{fill:none;}</style><linearGradient id="e" x1="202.63" y1="309.76" x2="202.63" y2="233.01" gradientTransform="matrix(1, 0, 0, 1, 0, 0)" gradientUnits="userSpaceOnUse"><stop offset="0" stop-color="#000"/><stop offset=".22" stop-color="#040404"/><stop offset="1" stop-color="#0f0f0f"/></linearGradient><linearGradient id="g" x1="29.16" y1="245.51" x2="382.47" y2="-24.32" gradientTransform="matrix(1, 0, 0, 1, 0, 0)" gradientUnits="userSpaceOnUse"><stop offset="0" stop-color="#2d336e"/><stop offset="1" stop-color="#2379c8"/></linearGradient><linearGradient id="j" x1="338.01" y1="348.65" x2="458.66" y2="176.82" gradientTransform="matrix(1, 0, 0, 1, 0, 0)" gradientUnits="userSpaceOnUse"><stop offset="0" stop-color="#2d336e"/><stop offset=".24" stop-color="#29498a"/><stop offset=".56" stop-color="#2663ac"/><stop offset=".82" stop-color="#2373c0"/><stop offset="1" stop-color="#2379c8"/></linearGradient></defs><g id="b"><g id="c"><g id="d"><path class="l" d="M291.47,308.6c0,13.86-39.77,23.75-88.84,23.75s-88.84-9.89-88.84-23.75,39.77-21.05,88.84-21.05,88.84,7.19,88.84,21.05Z"/><polygon class="q" points="207.77 287.55 226.93 288.19 253.39 290.18 224.8 306.87 194.73 306.72 207.77 287.55"/><path class="p" d="M291.47,308.6c0,13.86-39.77,23.75-88.84,23.75s-88.84-9.89-88.84-23.75,39.77-21.05,88.84-21.05,88.84,7.19,88.84,21.05Z"/></g><path class="t" d="M224.8,306.87s-7.56,2.88-22.17,2.88-22.17-2.88-22.17-2.88v-73.86h44.35v73.86Z"/></g><g id="f"><rect class="o" x="2.13" y="2.13" width="400.99" height="230.88" rx="3.51" ry="3.51"/><rect class="r" x="5.05" y="5.51" width="395.15" height="215.04"/></g><g id="h"><polygon class="s" points="64.83 183.22 137.66 63.19 139.18 60.68 141.09 62.95 203.45 136.78 200.78 136.29 258.52 103.91 260.2 102.96 261.28 104.51 316.09 183.22 257.84 107.02 260.6 107.63 202.87 140.02 201.33 140.88 200.19 139.53 137.83 65.7 141.27 65.46 64.83 183.22 64.83 183.22"/><circle class="s" cx="307.75" cy="56.82" r="12.47"/></g></g><g id="i"><rect class="m" x="344.62" y="161.98" width="102.84" height="208.03" rx="11.74" ry="11.74"/><path class="n" d="M435.78,370.01h-79.47c-6.45,0-11.69-5.28-11.69-11.8V173.78c0-6.52,5.23-11.8,11.69-11.8h22.64v3.87s0,3.64,2.05,3.64h29.51c2.62,0,2.62-3.64,2.62-3.64v-3.87h22.64c6.45,0,11.69,5.28,11.69,11.8v184.43c0,6.52-5.23,11.8-11.69,11.8Z"/><g id="k"><polygon class="s" points="352.24 292.12 377.99 249.3 378.67 248.16 379.54 249.19 401.73 275.46 400.52 275.24 421.07 263.72 421.84 263.28 422.32 263.99 441.66 292.12 420.76 265.13 422.01 265.4 401.47 276.93 400.77 277.32 400.26 276.71 378.07 250.44 379.62 250.33 352.24 292.12 352.24 292.12"/><circle class="s" cx="427.26" cy="242.32" r="4.11"/></g></g></svg>