<?xml version="1.0" encoding="utf-8"?>
<!-- Generator: Adobe Illustrator 26.3.1, SVG Export Plug-In . SVG Version: 6.00 Build 0)  -->
<svg version="1.1" xmlns="http://www.w3.org/2000/svg" xmlns:xlink="http://www.w3.org/1999/xlink" x="0px" y="0px"
	 viewBox="0 0 700 400" style="enable-background:new 0 0 700 400;" xml:space="preserve">
<style type="text/css">
	.st0{fill:#5C70C8;}
	.st1{fill:none;stroke:#29235C;stroke-miterlimit:10;}
	.st2{fill:none;stroke:#29235C;stroke-width:0.25;stroke-miterlimit:10;}
	.st3{opacity:0.75;fill:none;stroke:#29235C;stroke-miterlimit:10;}
	.st4{opacity:0.65;fill:none;stroke:#29235C;stroke-width:0.5;stroke-miterlimit:10;}
	.st5{opacity:0.8;fill:none;stroke:#29235C;stroke-width:0.5;stroke-miterlimit:10;}
	.st6{opacity:0.8;fill:none;stroke:#29235C;stroke-miterlimit:10;}
	.st7{opacity:0.8;fill:none;stroke:#29235C;stroke-width:0.75;stroke-miterlimit:10;}
	.st8{opacity:0.7;fill:none;stroke:#29235C;stroke-width:0.5;stroke-miterlimit:10;}
	.st9{fill:none;stroke:#29235C;stroke-width:0.75;stroke-miterlimit:10;}
	.st10{opacity:0.75;fill:none;stroke:#29235C;stroke-width:0.25;stroke-miterlimit:10;}
	.st11{opacity:0.75;fill:none;stroke:#29235C;stroke-width:0.75;stroke-miterlimit:10;}
	.st12{opacity:0.9;fill:none;stroke:#29235C;stroke-miterlimit:10;}
	.st13{opacity:0.8;fill:none;stroke:#29235C;stroke-width:0.25;stroke-miterlimit:10;}
	.st14{opacity:0.75;fill:none;stroke:#29235C;stroke-width:0.5;stroke-miterlimit:10;}
	.st15{opacity:0.85;fill:none;stroke:#29235C;stroke-width:0.5;stroke-miterlimit:10;}
	.st16{opacity:0.9;fill:none;stroke:#29235C;stroke-width:0.25;stroke-miterlimit:10;}
	.st17{opacity:0.9;fill:none;stroke:#29235C;stroke-width:0.75;stroke-miterlimit:10;}
	.st18{opacity:0.6;fill:none;stroke:#29235C;stroke-width:0.5;stroke-miterlimit:10;}
	.st19{opacity:0.5;fill:none;stroke:#29235C;stroke-width:0.25;stroke-miterlimit:10;}
	.st20{fill:#1D1D1B;stroke:#000000;stroke-width:2.133333e-03;stroke-miterlimit:10;}
</style>
<symbol  id="Nowy_symbol" viewBox="-4 -4 8 8">
	<circle class="st0" cx="0" cy="0" r="4"/>
</symbol>
<g id="particles">
	<g>
		<path class="st1" d="M628,45"/>
		<path class="st1" d="M559,75"/>
		<path class="st1" d="M559,75"/>
		<path class="st1" d="M625,71"/>
		<line class="st2" x1="536.4" y1="34.7" x2="479.2" y2="68.9"/>
		<line class="st2" x1="683.8" y1="12.1" x2="666.8" y2="-16.9"/>
		<line class="st3" x1="638.2" y1="47.7" x2="683.8" y2="11.9"/>
		<line class="st4" x1="558.1" y1="77.5" x2="551.1" y2="97.5"/>
		<line class="st2" x1="536.3" y1="118" x2="558.1" y2="77.3"/>
		<line class="st5" x1="548" y1="129.3" x2="551.1" y2="97.5"/>
		<line class="st2" x1="536.4" y1="118.4" x2="547.4" y2="129"/>
		<line class="st2" x1="623.1" y1="71.3" x2="621.2" y2="123.1"/>
		<line class="st2" x1="636.8" y1="119.3" x2="623.5" y2="71.2"/>
		<line class="st6" x1="-1291" y1="-828" x2="-1374.5" y2="-886.9"/>
		<line class="st4" x1="547.5" y1="129.4" x2="536.5" y2="161.4"/>
		<line class="st2" x1="574.6" y1="173.3" x2="536.6" y2="161.3"/>
		<line class="st7" x1="497.8" y1="182.6" x2="510" y2="204"/>
		<line class="st2" x1="512.7" y1="235.7" x2="510" y2="204.2"/>
		<line class="st7" x1="419.6" y1="161.7" x2="408.6" y2="181"/>
		<line class="st8" x1="385" y1="169.1" x2="419.1" y2="161.2"/>
		<line class="st2" x1="408.8" y1="181.7" x2="384.2" y2="169"/>
		<line class="st9" x1="570.8" y1="267.2" x2="587" y2="251.5"/>
		<line class="st2" x1="535" y1="246.9" x2="570.8" y2="267.2"/>
		<line class="st5" x1="512.6" y1="235.8" x2="536" y2="248"/>
		<line class="st4" x1="479" y1="255.4" x2="512.2" y2="236"/>
		<line class="st7" x1="465.4" y1="250.4" x2="478.9" y2="255.3"/>
		<line class="st4" x1="445.3" y1="232" x2="465.7" y2="250.6"/>
		<line class="st2" x1="479.1" y1="255.6" x2="445.9" y2="232.4"/>
		<line class="st10" x1="660.2" y1="255.9" x2="693.2" y2="241.6"/>
		<line class="st11" x1="622.4" y1="372.4" x2="642.1" y2="375.8"/>
		<line class="st2" x1="438.5" y1="340.3" x2="480.5" y2="342.3"/>
		<line class="st2" x1="399" y1="303" x2="362.5" y2="307.1"/>
		<line class="st7" x1="345" y1="313" x2="362.1" y2="307.4"/>
		<line class="st12" x1="351" y1="271.6" x2="358.2" y2="261"/>
		<line class="st2" x1="239.3" y1="321.8" x2="262.6" y2="323.8"/>
		<line class="st13" x1="265.2" y1="338.1" x2="238.2" y2="338.1"/>
		<line class="st14" x1="239.3" y1="321.6" x2="238.2" y2="338.2"/>
		<line class="st15" x1="262.5" y1="323.5" x2="264.8" y2="338.2"/>
		<line class="st7" x1="292.3" y1="333.5" x2="314.3" y2="332.5"/>
		<line class="st13" x1="264.6" y1="338.2" x2="292.2" y2="333.8"/>
		<line class="st2" x1="313.8" y1="351.8" x2="314.7" y2="332.1"/>
		<line class="st2" x1="291.9" y1="333.4" x2="313.8" y2="351.8"/>
		<line class="st4" x1="338.5" y1="346.4" x2="312.5" y2="352.4"/>
		<line class="st11" x1="356.4" y1="372.5" x2="377.5" y2="369.4"/>
		<line class="st2" x1="312.8" y1="376.6" x2="313.8" y2="351.8"/>
		<line class="st16" x1="542" y1="382" x2="565" y2="413"/>
		<line class="st17" x1="623.4" y1="71.8" x2="638.8" y2="47.7"/>
		<line class="st1" x1="597.8" y1="345.8" x2="622.4" y2="372.4"/>
		<line class="st18" x1="283.4" y1="348.6" x2="316.1" y2="332.2"/>
		<line class="st1" x1="110.9" y1="299.5" x2="113" y2="304.3"/>
		<line class="st2" x1="135.3" y1="355" x2="183.1" y2="360.6"/>
		<line class="st5" x1="292.3" y1="333.5" x2="283.4" y2="348.6"/>
		<line class="st2" x1="265.2" y1="338.9" x2="283.4" y2="348.6"/>
		<line class="st14" x1="320.1" y1="231.3" x2="358.3" y2="261.6"/>
		<line class="st1" x1="338.5" y1="346.4" x2="357.1" y2="372.4"/>
		<line class="st19" x1="238.7" y1="321" x2="264.8" y2="338.2"/>
	</g>
	<g>
		
			<use xlink:href="#Nowy_symbol"  width="8" height="8" id="XMLID_00000154405320750724763640000006739394606719446704_" x="-4" y="-4" transform="matrix(1 0 0 -1 537 145)" style="display:none;overflow:visible;"/>
		<g>
			
				<use xlink:href="#Nowy_symbol"  width="8" height="8" x="-4" y="-4" transform="matrix(0.5582 0 0 -0.5582 558.2764 77.3536)" style="overflow:visible;"/>
			
				<use xlink:href="#Nowy_symbol"  width="8" height="8" x="-4" y="-4" transform="matrix(0.5355 0 0 -0.5355 547.8642 129.2282)" style="overflow:visible;"/>
			
				<use xlink:href="#Nowy_symbol"  width="8" height="8" x="-4" y="-4" transform="matrix(0.4615 0 0 -0.4615 536.6738 161.3215)" style="overflow:visible;"/>
			
				<use xlink:href="#Nowy_symbol"  width="8" height="8" x="-4" y="-4" transform="matrix(0.5336 0 0 -0.5336 510.0641 204.2454)" style="overflow:visible;"/>
			
				<use xlink:href="#Nowy_symbol"  width="8" height="8" x="-4" y="-4" transform="matrix(0.5914 0 0 -0.5914 465.9492 250.3942)" style="overflow:visible;"/>
			
				<use xlink:href="#Nowy_symbol"  width="8" height="8" x="-4" y="-4" transform="matrix(0.4879 0 0 -0.4879 399.8651 302.8542)" style="overflow:visible;"/>
			
				<use xlink:href="#Nowy_symbol"  width="8" height="8" x="-4" y="-4" transform="matrix(0.4965 0 0 -0.4965 314.7444 332.5754)" style="overflow:visible;"/>
			
				<use xlink:href="#Nowy_symbol"  width="8" height="8" x="-4" y="-4" transform="matrix(0.4588 0 0 -0.4588 264.7874 338.2221)" style="overflow:visible;"/>
			
				<use xlink:href="#Nowy_symbol"  width="8" height="8" x="-4" y="-4" transform="matrix(0.4888 0 0 -0.4888 262.7641 323.9811)" style="overflow:visible;"/>
			
				<use xlink:href="#Nowy_symbol"  width="8" height="8" x="-4" y="-4" transform="matrix(0.417 0 0 -0.417 320.3595 231.2775)" style="overflow:visible;"/>
			
				<use xlink:href="#Nowy_symbol"  width="8" height="8" x="-4" y="-4" transform="matrix(0.6019 0 0 -0.6019 408.5473 181.3567)" style="overflow:visible;"/>
			
				<use xlink:href="#Nowy_symbol"  width="8" height="8" x="-4" y="-4" transform="matrix(0.5264 0 0 -0.5264 551.3928 97.4591)" style="overflow:visible;"/>
			
				<use xlink:href="#Nowy_symbol"  width="8" height="8" x="-4" y="-4" transform="matrix(0.5786 0 0 -0.5786 638.8724 47.4919)" style="overflow:visible;"/>
			
				<use xlink:href="#Nowy_symbol"  width="8" height="8" x="-4" y="-4" transform="matrix(0.4865 0 0 -0.4865 683.6983 12.2165)" style="overflow:visible;"/>
			
				<use xlink:href="#Nowy_symbol"  width="8" height="8" x="-4" y="-4" transform="matrix(0.6201 0 0 -0.6201 478.935 68.9078)" style="overflow:visible;"/>
			
				<use xlink:href="#Nowy_symbol"  width="8" height="8" x="-4" y="-4" transform="matrix(0.601 0 0 -0.601 384.9496 169.4758)" style="overflow:visible;"/>
			
				<use xlink:href="#Nowy_symbol"  width="8" height="8" x="-4" y="-4" transform="matrix(0.5209 0 0 -0.5209 272.6387 271.2673)" style="overflow:visible;"/>
			
				<use xlink:href="#Nowy_symbol"  width="8" height="8" x="-4" y="-4" transform="matrix(0.5594 0 0 -0.5594 239.6591 321.8748)" style="overflow:visible;"/>
			
				<use xlink:href="#Nowy_symbol"  width="8" height="8" x="-4" y="-4" transform="matrix(0.5531 0 0 -0.5531 238.3006 338.0591)" style="overflow:visible;"/>
			
				<use xlink:href="#Nowy_symbol"  width="8" height="8" x="-4" y="-4" transform="matrix(0.5478 0 0 -0.5478 357.9519 261.7832)" style="overflow:visible;"/>
			
				<use xlink:href="#Nowy_symbol"  width="8" height="8" x="-4" y="-4" transform="matrix(0.5303 0 0 -0.5303 497.9137 182.745)" style="overflow:visible;"/>
			
				<use xlink:href="#Nowy_symbol"  width="8" height="8" x="-4" y="-4" transform="matrix(0.7589 0 0 -0.7589 621.4965 124.1117)" style="overflow:visible;"/>
			
				<use xlink:href="#Nowy_symbol"  width="8" height="8" x="-4" y="-4" transform="matrix(0.6278 0 0 -0.6278 636.7003 118.8969)" style="overflow:visible;"/>
			
				<use xlink:href="#Nowy_symbol"  width="8" height="8" x="-4" y="-4" transform="matrix(0.5897 0 0 -0.5897 512.7812 235.7225)" style="overflow:visible;"/>
			
				<use xlink:href="#Nowy_symbol"  width="8" height="8" x="-4" y="-4" transform="matrix(0.602 0 0 -0.602 346.8545 312.0615)" style="overflow:visible;"/>
			
				<use xlink:href="#Nowy_symbol"  width="8" height="8" x="-4" y="-4" transform="matrix(0.4735 0 0 -0.4735 292.1071 333.7113)" style="overflow:visible;"/>
			
				<use xlink:href="#Nowy_symbol"  width="8" height="8" x="-4" y="-4" transform="matrix(0.5993 0 0 -0.5993 362.453 307.2325)" style="overflow:visible;"/>
			
				<use xlink:href="#Nowy_symbol"  width="8" height="8" x="-4" y="-4" transform="matrix(0.5551 0 0 -0.5551 586.9456 251.1515)" style="overflow:visible;"/>
			
				<use xlink:href="#Nowy_symbol"  width="8" height="8" x="-4" y="-4" transform="matrix(0.7813 0 0 -0.7813 692.5999 241.6631)" style="overflow:visible;"/>
			
				<use xlink:href="#Nowy_symbol"  width="8" height="8" x="-4" y="-4" transform="matrix(0.5839 0 0 -0.5839 570.8597 266.8894)" style="overflow:visible;"/>
			
				<use xlink:href="#Nowy_symbol"  width="8" height="8" x="-4" y="-4" transform="matrix(0.5336 0 0 -0.5336 338.4204 346.5715)" style="overflow:visible;"/>
			
				<use xlink:href="#Nowy_symbol"  width="8" height="8" x="-4" y="-4" transform="matrix(0.5861 0 0 -0.5861 312.6306 376.888)" style="overflow:visible;"/>
			
				<use xlink:href="#Nowy_symbol"  width="8" height="8" x="-4" y="-4" transform="matrix(0.7258 0 0 -0.7258 541.1319 380.601)" style="overflow:visible;"/>
			
				<use xlink:href="#Nowy_symbol"  width="8" height="8" x="-4" y="-4" transform="matrix(0.5361 0 0 -0.5361 597.4 345.859)" style="overflow:visible;"/>
			
				<use xlink:href="#Nowy_symbol"  width="8" height="8" x="-4" y="-4" transform="matrix(0.5128 0 0 -0.5128 313.8822 351.782)" style="overflow:visible;"/>
			
				<use xlink:href="#Nowy_symbol"  width="8" height="8" x="-4" y="-4" transform="matrix(0.3692 0 0 -0.3692 188.1551 397.1683)" style="overflow:visible;"/>
			
				<use xlink:href="#Nowy_symbol"  width="8" height="8" x="-4" y="-4" transform="matrix(0.4053 0 0 -0.4053 642.3864 375.9222)" style="overflow:visible;"/>
			
				<use xlink:href="#Nowy_symbol"  width="8" height="8" x="-4" y="-4" transform="matrix(0.7149 0 0 -0.7149 377.0699 369.4518)" style="overflow:visible;"/>
			
				<use xlink:href="#Nowy_symbol"  width="8" height="8" x="-4" y="-4" transform="matrix(0.6943 0 0 -0.6943 356.9591 372.59)" style="overflow:visible;"/>
			
				<use xlink:href="#Nowy_symbol"  width="8" height="8" x="-4" y="-4" transform="matrix(0.4252 0 0 -0.4252 622.783 372.4753)" style="overflow:visible;"/>
			
				<use xlink:href="#Nowy_symbol"  width="8" height="8" x="-4" y="-4" transform="matrix(0.8585 0 0 -0.8585 479.7246 342.2022)" style="overflow:visible;"/>
			
				<use xlink:href="#Nowy_symbol"  width="8" height="8" x="-4" y="-4" transform="matrix(0.6645 0 0 -0.6645 438.4965 340.1108)" style="overflow:visible;"/>
			
				<use xlink:href="#Nowy_symbol"  width="8" height="8" x="-4" y="-4" transform="matrix(0.5427 0 0 -0.5427 655.5363 337.7054)" style="overflow:visible;"/>
			
				<use xlink:href="#Nowy_symbol"  width="8" height="8" x="-4" y="-4" transform="matrix(0.8331 0 0 -0.8331 694.2028 316.0525)" style="overflow:visible;"/>
			
				<use xlink:href="#Nowy_symbol"  width="8" height="8" x="-4" y="-4" transform="matrix(0.5935 0 0 -0.5935 351.8148 270.2129)" style="overflow:visible;"/>
			
				<use xlink:href="#Nowy_symbol"  width="8" height="8" x="-4" y="-4" transform="matrix(0.6882 0 0 -0.6882 479.0822 255.2378)" style="overflow:visible;"/>
			
				<use xlink:href="#Nowy_symbol"  width="8" height="8" x="-4" y="-4" transform="matrix(0.6384 0 0 -0.6384 660.194 255.5811)" style="overflow:visible;"/>
			
				<use xlink:href="#Nowy_symbol"  width="8" height="8" x="-4" y="-4" transform="matrix(0.6089 0 0 -0.6089 534.9091 246.9629)" style="overflow:visible;"/>
			
				<use xlink:href="#Nowy_symbol"  width="8" height="8" x="-4" y="-4" transform="matrix(0.4736 0 0 -0.4736 445.989 232.2742)" style="overflow:visible;"/>
			
				<use xlink:href="#Nowy_symbol"  width="8" height="8" x="-4" y="-4" transform="matrix(0.7219 0 0 -0.7219 657.1093 210.3808)" style="overflow:visible;"/>
			
				<use xlink:href="#Nowy_symbol"  width="8" height="8" x="-4" y="-4" transform="matrix(0.6206 0 0 -0.6206 574.4941 173.0828)" style="overflow:visible;"/>
			
				<use xlink:href="#Nowy_symbol"  width="8" height="8" x="-4" y="-4" transform="matrix(0.6536 0 0 -0.6536 418.9371 161.157)" style="overflow:visible;"/>
			
				<use xlink:href="#Nowy_symbol"  width="8" height="8" x="-4" y="-4" transform="matrix(0.5035 0 0 -0.5035 536.3426 118.2576)" style="overflow:visible;"/>
			
				<use xlink:href="#Nowy_symbol"  width="8" height="8" x="-4" y="-4" transform="matrix(0.6456 0 0 -0.6456 623.6053 71.667)" style="overflow:visible;"/>
			
				<use xlink:href="#Nowy_symbol"  width="8" height="8" x="-4" y="-4" transform="matrix(0.3548 0 0 -0.3548 536.2047 35.1236)" style="overflow:visible;"/>
			
				<use xlink:href="#Nowy_symbol"  width="8" height="8" x="-4" y="-4" transform="matrix(0.4001 0 0 -0.4001 244.8966 212.7956)" style="overflow:visible;"/>
			
				<use xlink:href="#Nowy_symbol"  width="8" height="8" x="-4" y="-4" transform="matrix(0.4559 0 0 -0.4559 318.2687 146.2329)" style="overflow:visible;"/>
			
				<use xlink:href="#Nowy_symbol"  width="8" height="8" x="-4" y="-4" transform="matrix(0.3691 0 0 -0.3691 111.0874 299.7844)" style="overflow:visible;"/>
			
				<use xlink:href="#Nowy_symbol"  width="8" height="8" x="-4" y="-4" transform="matrix(0.3696 0 0 -0.3696 112.7601 304.0845)" style="overflow:visible;"/>
			
				<use xlink:href="#Nowy_symbol"  width="8" height="8" x="-4" y="-4" transform="matrix(0.4609 0 0 -0.4609 173.9786 276.1776)" style="overflow:visible;"/>
			
				<use xlink:href="#Nowy_symbol"  width="8" height="8" x="-4" y="-4" transform="matrix(0.4902 0 0 -0.4902 77.5329 346.5714)" style="overflow:visible;"/>
		</g>
		<g>
			
				<use xlink:href="#Nowy_symbol"  width="8" height="8" x="-4" y="-4" transform="matrix(0.3899 0 0 -0.3899 6.1044 396.3896)" style="overflow:visible;"/>
			
				<use xlink:href="#Nowy_symbol"  width="8" height="8" x="-4" y="-4" transform="matrix(0.2756 0 0 -0.2756 63.8323 384.0473)" style="overflow:visible;"/>
			
				<use xlink:href="#Nowy_symbol"  width="8" height="8" x="-4" y="-4" transform="matrix(0.3855 0 0 -0.3855 134.8055 355.4311)" style="overflow:visible;"/>
			
				<use xlink:href="#Nowy_symbol"  width="8" height="8" x="-4" y="-4" transform="matrix(0.4161 0 0 -0.4161 182.5551 360.6574)" style="overflow:visible;"/>
			
				<use xlink:href="#Nowy_symbol"  width="8" height="8" x="-4" y="-4" transform="matrix(0.3578 0 0 -0.3578 236.2636 378.8141)" style="overflow:visible;"/>
			
				<use xlink:href="#Nowy_symbol"  width="8" height="8" x="-4" y="-4" transform="matrix(0.4309 0 0 -0.4309 283.3667 348.5543)" style="overflow:visible;"/>
		</g>
	</g>
</g>
<g id="telegram">
	<g id="icon">
		<path class="st20" d="M592.7,179.9c1.4-3.4-0.1-7.3-3.5-8.7l-33.3-14.3c-3.4-1.5-7.3,0.1-8.8,3.5s0.1,7.3,3.5,8.8l33.3,14.3
			c0.8,0.4,1.7,0.5,2.6,0.5C589.2,184,591.6,182.4,592.7,179.9z"/>
		<circle class="st20" cx="613.1" cy="188.6" r="6.7"/>
		<path class="st20" d="M419.9,110.9c13.4,47.2,60,186.7,60,186.7c0.3,1,0.8,1.9,1.6,2.6c2.6,2.6,6.8,2.7,9.4,0.2l27.5-24
			c0.6-0.5,1.5-0.7,2.3-0.5l63.9,19.5c1.8,0.5,6.7,0,7.9-3.7c0.9-1.9,0.8-3.5,0.5-4.9c0-0.1,0-0.2-0.1-0.3
			c-0.9-2.7-15.1-45.3-18-53.9c-0.3-0.9,0-2,0.7-2.6l22-18.9l0,0c2.8-2.4,3.1-6.6,0.7-9.4c-2.4-2.8-6.6-3.1-9.4-0.7l-20.8,17.8
			c-0.9,0.8-2.2,0.8-3.1,0l-89.6-76.9c-2.1-1.8,0-5.1,2.5-4l45.5,19.5c3.4,1.5,7.3-0.1,8.8-3.5s-0.1-7.3-3.5-8.8
			c0,0-74.6-33.1-100-42.9c-1.8-0.7-4.1-1.4-7.3,2.2C418.9,107.2,419.6,109.9,419.9,110.9z M477.7,161.5l83,71.1l11.8,35.4
			l-28.2-24.1L477.7,161.5z M531.1,265.1l8.7-7.6l17.9,15.6L531.1,265.1z M443.3,140.5L530,247.8l-40.9,35.7L443.3,140.5z"/>
	</g>
</g>
</svg>
