<?xml version="1.0" encoding="utf-8"?>
<!-- Generator: Adobe Illustrator 26.5.0, SVG Export Plug-In . SVG Version: 6.00 Build 0)  -->
<svg version="1.1" id="icon" xmlns="http://www.w3.org/2000/svg" xmlns:xlink="http://www.w3.org/1999/xlink" x="0px" y="0px"
	 viewBox="0 0 128 128" style="enable-background:new 0 0 128 128;" xml:space="preserve">
<style type="text/css">
	.st0{fill:#470137;}
	.st1{fill:#FF61F6;}
</style>
<g id="Layer_2_1_">
	<g id="Surfaces">
		<g id="UI_UX_Surface">
			<g id="Outline_no_shadow">
				<path class="st0" d="M22.7,1.6h82.7c12.5,0,22.7,10.1,22.7,22.7v79.5c0,12.5-10.1,22.7-22.7,22.7H22.7
					C10.1,126.4,0,116.3,0,103.7V24.3C0,11.7,10.1,1.6,22.7,1.6z"/>
			</g>
		</g>
	</g>
	<g id="Outlined_Mnemonics_Logos">
		<g id="Xd">
			<path class="st1" d="M67.3,34.4l-16,26.4l17.1,28c0.1,0.2,0.2,0.4,0.1,0.6c-0.1,0.2-0.3,0.1-0.6,0.1H55.7c-0.9,0-1.4-0.1-1.8-0.6
				c-1.1-2.2-2.3-4.4-3.4-6.7c-1.1-2.2-2.3-4.4-3.6-6.7S44.3,71,43,68.6h-0.1c-1.1,2.3-2.3,4.6-3.6,6.9c-1.2,2.3-2.5,4.6-3.6,6.8
				c-1.2,2.2-2.5,4.5-3.7,6.7c-0.2,0.5-0.6,0.6-1.2,0.6H19c-0.2,0-0.4,0.1-0.4-0.2c-0.1-0.2,0-0.4,0.1-0.6l16.6-27.2L19.2,34.3
				c-0.2-0.2-0.2-0.4-0.1-0.5c0.1-0.2,0.3-0.2,0.5-0.2h12.1c0.3,0,0.5,0.1,0.7,0.1c0.2,0.1,0.4,0.3,0.5,0.5c1,2.3,2.2,4.6,3.4,6.9
				c1.3,2.3,2.5,4.5,3.8,6.8c1.3,2.2,2.5,4.5,3.6,6.8h0.1c1.1-2.3,2.3-4.6,3.5-6.9c1.2-2.2,2.4-4.5,3.6-6.7c1.2-2.2,2.4-4.5,3.6-6.7
				c0.1-0.2,0.2-0.4,0.3-0.5c0.2-0.1,0.4-0.2,0.7-0.1h11.3c0.3-0.1,0.5,0.1,0.6,0.4C67.5,34.1,67.4,34.3,67.3,34.4L67.3,34.4z"/>
			<path class="st1" d="M91.9,90.7c-3.9,0.1-7.9-0.7-11.5-2.4c-3.4-1.5-6.1-4.1-8.1-7.3c-2-3.3-2.9-7.3-2.9-12.2
				c-0.1-3.9,1-7.8,2.9-11.3c2-3.5,5-6.3,8.5-8.3c3.7-2.1,8.2-3.1,13.5-3.1c0.3,0,0.6,0,1.1,0.1c0.5,0.1,1,0.1,1.7,0.1V29.5
				c0-0.4,0.2-0.6,0.5-0.6h10.8c0.3-0.1,0.5,0.2,0.5,0.4c0,0.1,0,0.1,0,0.1v50.8c0,1,0.1,2,0.1,3.2c0.1,1.1,0.2,2.2,0.2,3.1
				c0,0.4-0.2,0.7-0.5,0.9c-2.8,1.2-5.7,2-8.7,2.6C97.4,90.4,94.7,90.7,91.9,90.7z M97.2,80V56.5c-0.5-0.1-1-0.2-1.4-0.3
				c-0.6-0.1-1.2-0.1-1.8-0.1c-2.1,0-4.2,0.4-6,1.4c-1.8,0.9-3.4,2.2-4.5,3.9c-1.2,1.7-1.8,4-1.8,6.8c-0.1,1.9,0.3,3.7,0.9,5.5
				c0.5,1.4,1.3,2.7,2.4,3.8c1,1,2.2,1.7,3.6,2.1c1.4,0.5,2.9,0.7,4.4,0.7c0.8,0,1.5-0.1,2.2-0.1C95.9,80.3,96.5,80.2,97.2,80z"/>
		</g>
	</g>
</g>
</svg>
