<?xml version="1.0" encoding="utf-8"?>
<!-- Generator: Adobe Illustrator 26.5.0, SVG Export Plug-In . SVG Version: 6.00 Build 0)  -->
<svg version="1.1" id="icon" xmlns="http://www.w3.org/2000/svg" xmlns:xlink="http://www.w3.org/1999/xlink" x="0px" y="0px"
	 viewBox="0 0 128 128" style="enable-background:new 0 0 128 128;" xml:space="preserve">
<style type="text/css">
	.st0{fill:#00005B;}
	.st1{fill:#9999FF;}
</style>
<g id="vlpa">
	<g id="vlpb">
		<g id="vlpc">
			<g id="vlpd">
				<path class="st0" d="M22.7,1.6h82.7c12.5,0,22.7,10.1,22.7,22.7v79.5c0,12.5-10.1,22.7-22.7,22.7H22.7
					C10.1,126.4,0,116.3,0,103.7V24.3C0,11.7,10.1,1.6,22.7,1.6z"/>
			</g>
		</g>
	</g>
	<g id="vlpe">
		<g id="vlpf">
			<path class="st1" d="M51.4,76.3H31.6l-4.1,12.6c-0.1,0.5-0.5,0.8-1,0.7h-10c-0.6,0-0.7-0.3-0.6-1l17.2-49.2
				c0.2-0.5,0.3-1,0.5-1.7c0.2-1.1,0.3-2.3,0.3-3.5c-0.1-0.3,0.2-0.5,0.4-0.6h0.2h13.7c0.4,0,0.6,0.2,0.7,0.4l19.5,54.4
				c0.2,0.6,0,0.9-0.5,0.9H56.6c-0.4,0.1-0.7-0.2-0.9-0.6L51.4,76L51.4,76.3z M34.7,65.7h13.5c-0.3-1.1-0.7-2.5-1.2-3.8
				c-0.5-1.4-1-3-1.4-4.6c-0.5-1.7-1-3.3-1.5-4.9s-1-3.2-1.4-4.7c-0.4-1.5-0.8-2.9-1.2-4.2h-0.1c-0.5,2.3-1.1,4.6-1.8,6.9
				c-0.8,2.6-1.6,5.2-2.5,7.9C36.3,60.9,35.5,63.4,34.7,65.7z"/>
			<path class="st1" d="M99.7,71.5H82.8c0.2,1.7,0.7,3.3,1.7,4.7c1,1.4,2.3,2.6,3.9,3.2c2.1,0.9,4.5,1.4,6.8,1.3
				c1.9-0.1,3.7-0.2,5.5-0.6c1.7-0.2,3.3-0.6,4.7-1.2c0.3-0.2,0.4-0.1,0.4,0.4v8.2c0,0.2-0.1,0.4-0.1,0.6c-0.1,0.2-0.2,0.3-0.4,0.4
				c-1.7,0.7-3.5,1.3-5.3,1.6c-2.5,0.5-5,0.7-7.6,0.6c-4.1,0-7.5-0.6-10.2-1.9c-2.6-1.1-4.9-2.9-6.7-5.1c-1.7-2.1-2.9-4.4-3.7-7
				c-0.7-2.5-1.1-5.1-1.1-7.8c0-2.9,0.4-5.7,1.3-8.5c0.9-2.7,2.2-5.1,4-7.3c1.8-2.1,3.9-3.8,6.5-5.1c2.5-1.2,5.5-1.7,8.9-1.7
				c2.8-0.1,5.7,0.5,8.3,1.7c2.2,1,4.1,2.4,5.6,4.3c1.4,1.8,2.5,3.8,3.2,6.1c0.7,2.1,1,4.3,1,6.5c0,1.3-0.1,2.4-0.1,3.4
				c-0.1,1-0.2,1.8-0.2,2.2c-0.1,0.4-0.4,0.7-0.7,0.7c-0.3,0-0.9,0.1-1.8,0.1c-0.9,0.1-1.9,0.2-3.1,0.2S101.1,71.5,99.7,71.5
				L99.7,71.5z M82.8,63.7h11.3c1.4,0,2.4,0,3-0.1c0.4-0.1,0.9-0.2,1.2-0.4v-0.5c0-0.7-0.1-1.3-0.3-2c-1-3-3.8-5-6.9-4.9
				c-2.9-0.2-5.7,1.4-7.1,4.1C83.4,61.1,83,62.3,82.8,63.7z"/>
		</g>
	</g>
</g>
</svg>
