<?xml version="1.0" encoding="utf-8"?>
<!-- Generator: Adobe Illustrator 26.5.0, SVG Export Plug-In . SVG Version: 6.00 Build 0)  -->
<svg version="1.1" id="icon" xmlns="http://www.w3.org/2000/svg" xmlns:xlink="http://www.w3.org/1999/xlink" x="0px" y="0px"
	 viewBox="0 0 128 128" style="enable-background:new 0 0 128 128;" xml:space="preserve">
<style type="text/css">
	.st0{fill-rule:evenodd;clip-rule:evenodd;fill:url(#path6490_00000029027186569448851970000000567454902940918444_);}
	
		.st1{fill-rule:evenodd;clip-rule:evenodd;fill:url(#path4323_00000067211131375605144430000018324458267047958957_);stroke:#2E3436;stroke-width:2.7706;stroke-miterlimit:65.8333;}
	.st2{fill-rule:evenodd;clip-rule:evenodd;fill:url(#path6480_00000139276462644805116890000007320297131932899215_);}
	
		.st3{opacity:0.1854;fill:none;stroke:url(#path8520_00000073704538507424486950000014423535895153403288_);stroke-width:2.7706;stroke-miterlimit:65.8333;enable-background:new    ;}
	
		.st4{fill-rule:evenodd;clip-rule:evenodd;fill:url(#path4357_00000096041921485976913060000010167889609500831667_);stroke:#888A85;stroke-width:2.7706;stroke-miterlimit:84.1204;}
	
		.st5{fill-rule:evenodd;clip-rule:evenodd;fill:url(#path5198_00000165952484257277827410000000128996931099425719_);stroke:#000000;stroke-width:2.7706;stroke-miterlimit:65.8334;}
	.st6{fill-rule:evenodd;clip-rule:evenodd;fill:#2E3436;stroke:#000000;stroke-width:2.7706;stroke-miterlimit:56.0803;}
	
		.st7{opacity:0.2809;fill:none;stroke:url(#path6450_00000072242757101828913240000002017152330059355545_);stroke-width:2.7706;stroke-miterlimit:65.8333;enable-background:new    ;}
	.st8{fill-rule:evenodd;clip-rule:evenodd;fill:#FFFFFF;}
	
		.st9{fill-rule:evenodd;clip-rule:evenodd;fill:url(#path6462_00000178179408966203007260000003500059722585055365_);stroke:#888A85;stroke-width:2.7706;stroke-miterlimit:98.75;}
	.st10{fill-rule:evenodd;clip-rule:evenodd;fill:#2E3436;stroke:#000000;stroke-width:2.7706;stroke-miterlimit:65.8333;}
	
		.st11{fill:url(#path6937_00000119084555136189462490000018314601542073632656_);stroke:#673907;stroke-width:2.7706;stroke-linecap:round;stroke-miterlimit:10.7026;}
	
		.st12{fill:url(#path6935_00000146475779494418617270000000115347103733050012_);stroke:#888A85;stroke-width:2.7706;stroke-linecap:round;stroke-miterlimit:10.7026;}
	.st13{fill:none;stroke:#FFFFFF;stroke-width:2.7706;stroke-linecap:round;stroke-linejoin:round;stroke-miterlimit:10.7026;}
	.st14{fill:url(#path6933_00000087383031065771257060000011011928193565691575_);}
	.st15{opacity:0.5278;fill:#FFFFFF;enable-background:new    ;}
	.st16{fill:#FFFFFF;}
	.st17{opacity:0.4278;fill:url(#path1571_00000176749342041538055180000016934900552860230054_);enable-background:new    ;}
	.st18{fill-rule:evenodd;clip-rule:evenodd;fill:url(#path8532_00000139266865370059529210000015444438193235472271_);}
</style>
<g id="layer1">
	
		<radialGradient id="path6490_00000093135551779552596010000003968882613409752205_" cx="10.2879" cy="140.3533" r="7.6806" gradientTransform="matrix(6.5833 0 0 -2.8633 -4.7604 483.448)" gradientUnits="userSpaceOnUse">
		<stop  offset="0" style="stop-color:#000000"/>
		<stop  offset="1" style="stop-color:#000000;stop-opacity:0"/>
	</radialGradient>
	
		<path id="path6490" style="fill-rule:evenodd;clip-rule:evenodd;fill:url(#path6490_00000093135551779552596010000003968882613409752205_);" d="
		M113.5,81.6c0,12.1-22.6,22-50.6,22s-50.6-9.8-50.6-22s22.6-22,50.6-22S113.5,69.4,113.5,81.6z"/>
	
		<radialGradient id="path4323_00000013183684067596700090000015606060944572657546_" cx="13.9682" cy="117.5869" r="8.0927" gradientTransform="matrix(11.6706 0 0 -8.5365 -118.2449 1058.6504)" gradientUnits="userSpaceOnUse">
		<stop  offset="0" style="stop-color:#857C63"/>
		<stop  offset="1" style="stop-color:#221F19"/>
	</radialGradient>
	
		<path id="path4323" style="fill-rule:evenodd;clip-rule:evenodd;fill:url(#path4323_00000013183684067596700090000015606060944572657546_);stroke:#2E3436;stroke-width:2.7706;stroke-miterlimit:65.8333;" d="
		M27.6,27.6c0,0,8,16.4,26.6,16c39-1,45.9-21.3,46.9-24.3s2.5-2.5,2.8,0.2c12.7,115.6-88.4,66-92,46.3C32,60,27.2,48.7,27.2,48.7
		L27.6,27.6z"/>
	
		<linearGradient id="path6480_00000181085235870506615610000008904737530763966398_" gradientUnits="userSpaceOnUse" x1="16.6036" y1="118.148" x2="11.9166" y2="117.2181" gradientTransform="matrix(6.5833 0 0 -6.5833 -30.8406 852.5276)">
		<stop  offset="0" style="stop-color:#000000"/>
		<stop  offset="1" style="stop-color:#000000;stop-opacity:0"/>
	</linearGradient>
	
		<path id="path6480" style="fill-rule:evenodd;clip-rule:evenodd;fill:url(#path6480_00000181085235870506615610000008904737530763966398_);" d="
		M42.5,76.4c18.7,3.7,28.2,0.3,33.7-4c-1.5-1.9-4-4-4-4s6.5,1.8,8.8,4.8c2.3,3,0.9,4.8,0.3,8.6c-1.3-3.3-3.8-4.6-4.2-5.9
		C72.2,82.7,59.7,82.5,42.5,76.4z"/>
	
		<linearGradient id="path8520_00000026849565087144677110000001111434629535660191_" gradientUnits="userSpaceOnUse" x1="9.3433" y1="124.2407" x2="19.6777" y2="112.5095" gradientTransform="matrix(6.5833 0 0 -6.5833 -5.5833 850.25)">
		<stop  offset="0" style="stop-color:#FFFFFF"/>
		<stop  offset="1" style="stop-color:#FFFFFF;stop-opacity:0"/>
	</linearGradient>
	
		<path id="path8520" style="opacity:0.1854;fill:none;stroke:url(#path8520_00000026849565087144677110000001111434629535660191_);stroke-width:2.7706;stroke-miterlimit:65.8333;enable-background:new    ;" d="
		M101.3,25.9c-1.6,2.6-3.9,5.6-7.4,8.6c-7.3,6-19.5,11.5-39.6,12C42.6,46.8,35,41.1,30.4,36.1l-0.3,12.4c0.4,1.2,1.2,3.9-0.2,7.5
		c-1.4,4-6,8-13.8,11.1c0.7,1.4,1.4,2.9,3.5,4.9c2.8,2.8,6.8,5.8,11.5,8.5c9.4,5.4,21.6,9.7,33,9.9C75.5,90.6,85.9,87,93,76.6
		C99.6,66.9,103.2,50.7,101.3,25.9z"/>
	
		<radialGradient id="path4357_00000062909842942990210190000015354352860899688880_" cx="65.5931" cy="116.4868" r="1.4794" gradientTransform="matrix(11.0912 0 0 -11.0912 -690.8029 1336.413)" gradientUnits="userSpaceOnUse">
		<stop  offset="0" style="stop-color:#FFFFFF"/>
		<stop  offset="1" style="stop-color:#B9B9B0"/>
	</radialGradient>
	
		<path id="path4357" style="fill-rule:evenodd;clip-rule:evenodd;fill:url(#path4357_00000062909842942990210190000015354352860899688880_);stroke:#888A85;stroke-width:2.7706;stroke-miterlimit:84.1204;" d="
		M48,52.4c0,6.2-5,11.3-11.3,11.3s-11.3-5-11.3-11.3s5-11.3,11.3-11.3S48,46.1,48,52.4z"/>
	
		<radialGradient id="path5198_00000153699971680400623190000016910529435433865116_" cx="12.2778" cy="116.9407" r="2.0332" gradientTransform="matrix(5.2503 -3.0313 -3.538 -6.1279 360.5631 811.5664)" gradientUnits="userSpaceOnUse">
		<stop  offset="0" style="stop-color:#5B676B"/>
		<stop  offset="1" style="stop-color:#141718"/>
	</radialGradient>
	
		<path id="path5198" style="fill-rule:evenodd;clip-rule:evenodd;fill:url(#path5198_00000153699971680400623190000016910529435433865116_);stroke:#000000;stroke-width:2.7706;stroke-miterlimit:65.8334;" d="
		M25.5,56.6c5.5,7.6,5.5,16.8,0.2,20.7c-5.4,3.9-14.2,0.9-19.6-6.7c0,0,0,0,0,0c-5.5-7.6-5.5-16.8-0.2-20.7
		C11.3,46,20.1,49,25.5,56.6C25.5,56.6,25.5,56.6,25.5,56.6z"/>
	<path id="path4359" class="st6" d="M44.8,54c0,3-2.4,5.4-5.4,5.4c-3,0-5.4-2.4-5.4-5.4c0-3,2.4-5.4,5.4-5.4
		C42.3,48.6,44.8,51,44.8,54z"/>
	
		<linearGradient id="path6450_00000017474686400450487570000004546337065032964747_" gradientUnits="userSpaceOnUse" x1="13.7239" y1="118.4157" x2="13.5891" y2="114.9615" gradientTransform="matrix(5.2692 -3.9466 -3.9466 -5.2692 404.2835 732.9186)">
		<stop  offset="0" style="stop-color:#FFFFFF"/>
		<stop  offset="1" style="stop-color:#FFFFFF;stop-opacity:0"/>
	</linearGradient>
	
		<path id="path6450" style="opacity:0.2809;fill:none;stroke:url(#path6450_00000017474686400450487570000004546337065032964747_);stroke-width:2.7706;stroke-miterlimit:65.8333;enable-background:new    ;" d="
		M6.9,52.4C5.1,53.7,4.2,56,4.3,59c0.1,3,1.3,6.8,3.8,10.1s5.7,5.5,8.6,6.4c2.9,0.9,5.3,0.7,7.1-0.7c1.8-1.3,2.7-3.7,2.6-6.7
		c-0.1-3.1-1.2-6.7-3.7-10c-2.5-3.3-5.6-5.4-8.6-6.4C11.2,50.8,8.7,51.1,6.9,52.4z"/>
	<path id="path6446" class="st8" d="M15.1,57.5c0,3.2-2.2,5.9-4.9,5.9s-4.9-2.6-4.9-5.9c0,0,0,0,0,0c0-3.2,2.2-5.9,4.9-5.9
		C12.9,51.6,15.1,54.3,15.1,57.5C15.1,57.5,15.1,57.5,15.1,57.5z"/>
	<path id="path4361" class="st8" d="M41,51.5c0,2.1-1.7,3.8-3.8,3.8s-3.8-1.7-3.8-3.8c0,0,0,0,0,0c0-2.1,1.7-3.8,3.8-3.8
		C39.3,47.8,41,49.5,41,51.5C41,51.5,41,51.5,41,51.5z"/>
	
		<radialGradient id="path6462_00000017482227401339486060000018024683291177166246_" cx="63.8572" cy="115.4209" r="1.4794" gradientTransform="matrix(13.0201 0 0 -13.0201 -771.459 1547.072)" gradientUnits="userSpaceOnUse">
		<stop  offset="0" style="stop-color:#FFFFFF"/>
		<stop  offset="1" style="stop-color:#B9B9B0"/>
	</radialGradient>
	
		<path id="path6462" style="fill-rule:evenodd;clip-rule:evenodd;fill:url(#path6462_00000017482227401339486060000018024683291177166246_);stroke:#888A85;stroke-width:2.7706;stroke-miterlimit:98.75;" d="
		M73.2,53.6c0,7.3-5.9,13.2-13.2,13.2s-13.2-5.9-13.2-13.2S52.7,40.4,60,40.4S73.2,46.3,73.2,53.6z"/>
	<path id="path6464" class="st10" d="M69.4,55.5c0,3.5-2.9,6.4-6.4,6.4c-3.5,0-6.4-2.9-6.4-6.4s2.9-6.4,6.4-6.4
		C66.6,49.2,69.4,52,69.4,55.5z"/>
	<path id="path6466" class="st8" d="M65,52.6c0,2.4-2,4.4-4.4,4.4c-2.4,0-4.4-2-4.4-4.4c0,0,0,0,0,0c0-2.4,2-4.4,4.4-4.4
		S65,50.2,65,52.6C65,52.6,65,52.6,65,52.6z"/>
	<g id="g8463" transform="matrix(-0.114852,-0.389864,0.389864,-0.114852,24.71507,29.68942)">
		
			<linearGradient id="path6937_00000160189610088182612020000006245459600159616432_" gradientUnits="userSpaceOnUse" x1="-325.3279" y1="97.5359" x2="-329.2265" y2="94.1449" gradientTransform="matrix(-0.7561 2.5666 2.5666 0.7561 -658.7028 878.2505)">
			<stop  offset="0" style="stop-color:#6E3D09"/>
			<stop  offset="0.2424" style="stop-color:#EA8113"/>
			<stop  offset="0.6212" style="stop-color:#5C3307"/>
			<stop  offset="1" style="stop-color:#E07C12"/>
		</linearGradient>
		
			<path id="path6937" style="fill:url(#path6937_00000160189610088182612020000006245459600159616432_);stroke:#673907;stroke-width:2.7706;stroke-linecap:round;stroke-miterlimit:10.7026;" d="
			M-202.1,134.2l10.3,9.6c23.1-17.7,47.4-55.7,47.4-55.7c5.5-6.2-0.3-10.4-6-6.6C-150.5,81.5-186.4,109.5-202.1,134.2z"/>
		
			<linearGradient id="path6935_00000166660937433057735080000006489720253896222341_" gradientUnits="userSpaceOnUse" x1="-299.5455" y1="79.0258" x2="-297.9822" y2="80.4725" gradientTransform="matrix(-0.7561 2.5666 2.5666 0.7561 -639.6243 854.0201)">
			<stop  offset="0" style="stop-color:#BDBDBD"/>
			<stop  offset="0.3333" style="stop-color:#E2E2E2"/>
			<stop  offset="0.6667" style="stop-color:#A3A3A3"/>
			<stop  offset="1" style="stop-color:#DDDDDD"/>
		</linearGradient>
		
			<path id="path6935" style="fill:url(#path6935_00000166660937433057735080000006489720253896222341_);stroke:#888A85;stroke-width:2.7706;stroke-linecap:round;stroke-miterlimit:10.7026;" d="
			M-221.8,159.9l6.2,5.4l23.5-20.4l0.8-2l3,0c-1.2-4.3-8.1-12.1-13.3-12.1l0.2,3l-1.9,1.1L-221.8,159.9z"/>
		<path id="path6985" class="st13" d="M-203.4,147.6l-12.1,14.6"/>
		
			<radialGradient id="path6933_00000098903050946105541350000000728259298509021373_" cx="-239.6004" cy="24.9314" r="3.1897" gradientTransform="matrix(-1.1891 3.9337 4.0365 1.1588 -609.1987 1073.5171)" gradientUnits="userSpaceOnUse">
			<stop  offset="0" style="stop-color:#696969"/>
			<stop  offset="1" style="stop-color:#000000"/>
		</radialGradient>
		<path id="path6933" style="fill:url(#path6933_00000098903050946105541350000000728259298509021373_);" d="M-263,187.4
			c28.9,0,50.9,3.4,55.1-17.6c3.4-17-20-25.1-31.5-9.9C-250.7,174.5-263,187.4-263,187.4z"/>
		<path id="path6971" class="st15" d="M-210.5,170.4c0,4-3.2,7.2-7.2,7.2c-4,0-7.2-3.2-7.2-7.2c0-4,3.2-7.2,7.2-7.2
			C-213.7,163.3-210.5,166.5-210.5,170.4z"/>
		<path id="path6983" class="st16" d="M-191.9,143.3c0,2.7-2.2,4.8-4.8,4.8c-2.7,0-4.8-2.2-4.8-4.8c0-2.7,2.2-4.8,4.8-4.8
			C-194.1,138.5-191.9,140.6-191.9,143.3z"/>
		
			<linearGradient id="path1571_00000022538072651368324560000007884726632428787370_" gradientUnits="userSpaceOnUse" x1="-375.2462" y1="-10.1767" x2="-377.5542" y2="-8.2703" gradientTransform="matrix(-1.5852 1.6394 1.6394 1.5852 -801.2692 810.5146)">
			<stop  offset="0" style="stop-color:#FFFFFF"/>
			<stop  offset="1" style="stop-color:#FFFFFF;stop-opacity:0"/>
		</linearGradient>
		
			<path id="path1571" style="opacity:0.4278;fill:url(#path1571_00000022538072651368324560000007884726632428787370_);enable-background:new    ;" d="
			M-244.2,182.3c0,0,10.3,0.3,16.9-3.9c2.3-1.5,4.2,1.8,1.4,3C-232,184-244.2,182.3-244.2,182.3z"/>
	</g>
	
		<linearGradient id="path8532_00000054978130404343733640000014888738866187538574_" gradientUnits="userSpaceOnUse" x1="11.6606" y1="117.4754" x2="10.8887" y2="117.2894" gradientTransform="matrix(6.5833 0 0 -6.5833 -5.5833 850.25)">
		<stop  offset="0" style="stop-color:#000000"/>
		<stop  offset="1" style="stop-color:#000000;stop-opacity:0"/>
	</linearGradient>
	
		<path id="path8532" style="fill-rule:evenodd;clip-rule:evenodd;fill:url(#path8532_00000054978130404343733640000014888738866187538574_);" d="
		M62.6,81c4.1,0.4,7.9-0.8,9.5-1.3c0.3-1.5,1.5-4.5,5.7-4.7l-1.5-2.6c0,0-5.4,3.7-11.3,4.8L62.6,81z"/>
</g>
</svg>
