<?xml version="1.0" encoding="utf-8"?>
<!-- Generator: Adobe Illustrator 26.5.0, SVG Export Plug-In . SVG Version: 6.00 Build 0)  -->
<svg version="1.1" id="icon" xmlns="http://www.w3.org/2000/svg" xmlns:xlink="http://www.w3.org/1999/xlink" x="0px" y="0px"
	 viewBox="0 0 128 128" style="enable-background:new 0 0 128 128;" xml:space="preserve">
<style type="text/css">
	.st0{fill:#F7DF1E;}
</style>
<g>
	<rect class="st0" width="128" height="128"/>
	<path d="M86,100c2.6,4.2,5.9,7.3,11.9,7.3c5,0,8.2-2.5,8.2-5.9c0-4.1-3.3-5.6-8.8-8l-3-1.3c-8.7-3.7-14.4-8.3-14.4-18.1
		c0-9,6.9-15.9,17.6-15.9c7.6,0,13.1,2.7,17.1,9.6l-9.4,6c-2.1-3.7-4.3-5.2-7.7-5.2c-3.5,0-5.8,2.2-5.8,5.2c0,3.6,2.2,5.1,7.4,7.3
		l3,1.3c10.2,4.4,16,8.9,16,18.9c0,10.8-8.5,16.8-19.9,16.8c-11.2,0-18.4-5.3-21.9-12.3L86,100z M43.5,101c1.9,3.4,3.6,6.2,7.7,6.2
		c4,0,6.4-1.5,6.4-7.6V58.8h12v41.1c0,12.5-7.3,18.1-18,18.1c-9.6,0-15.2-5-18-11L43.5,101z"/>
</g>
</svg>
