<?xml version="1.0" encoding="utf-8"?>
<!-- Generator: Adobe Illustrator 26.5.0, SVG Export Plug-In . SVG Version: 6.00 Build 0)  -->
<svg version="1.1" id="icon" xmlns="http://www.w3.org/2000/svg" xmlns:xlink="http://www.w3.org/1999/xlink" x="0px" y="0px"
	 viewBox="0 0 128 128" style="enable-background:new 0 0 128 128;" xml:space="preserve">
<style type="text/css">
	.st0{fill:#539E43;}
</style>
<g>
	<path class="st0" d="M64,128c-1.8,0-3.4-0.5-4.9-1.3l-15.6-9.3c-2.4-1.3-1.2-1.8-0.5-2c3.2-1.1,3.8-1.3,7.1-3.2
		c0.4-0.2,0.8-0.1,1.2,0.1l12,7.2c0.5,0.2,1.1,0.2,1.4,0l46.9-27.2c0.5-0.2,0.7-0.7,0.7-1.3V36.9c0-0.6-0.2-1.1-0.7-1.3l-46.9-27
		c-0.5-0.2-1.1-0.2-1.4,0l-46.9,27c-0.5,0.2-0.7,0.8-0.7,1.3v54.2c0,0.5,0.2,1.1,0.7,1.3l12.8,7.4c6.9,3.5,11.3-0.6,11.3-4.7V41.6
		c0-0.7,0.6-1.4,1.4-1.4h6c0.7,0,1.4,0.6,1.4,1.4v53.5c0,9.3-5.1,14.7-13.9,14.7c-2.7,0-4.8,0-10.8-2.9l-12.3-7.1
		c-3.1-1.8-4.9-5.1-4.9-8.6V37c0-3.5,1.9-6.8,4.9-8.6L59.1,1.2c2.9-1.6,6.9-1.6,9.9,0l46.9,27.2c3.1,1.8,4.9,5.1,4.9,8.6v54.2
		c0,3.5-1.9,6.8-4.9,8.6l-46.9,27.2C67.4,127.6,65.6,128,64,128L64,128z M78.5,90.7c-20.6,0-24.8-9.4-24.8-17.4
		c0-0.7,0.6-1.4,1.4-1.4h6.1c0.7,0,1.3,0.5,1.3,1.2c0.9,6.2,3.6,9.3,16.1,9.3c9.9,0,14.1-2.2,14.1-7.5c0-3.1-1.2-5.3-16.6-6.8
		c-12.8-1.3-20.8-4.1-20.8-14.3c0-9.5,8-15.2,21.4-15.2c15.1,0,22.5,5.2,23.4,16.5c0,0.4-0.1,0.7-0.4,1.1c-0.2,0.2-0.6,0.5-0.9,0.5
		h-6.1c-0.6,0-1.2-0.5-1.3-1.1c-1.4-6.5-5.1-8.6-14.7-8.6c-10.8,0-12.1,3.8-12.1,6.6c0,3.4,1.5,4.5,16.1,6.4
		c14.5,1.9,21.3,4.6,21.3,14.7C101.9,84.8,93.4,90.7,78.5,90.7L78.5,90.7z"/>
</g>
</svg>
