<?xml version="1.0" encoding="utf-8"?>
<!-- Generator: Adobe Illustrator 26.5.0, SVG Export Plug-In . SVG Version: 6.00 Build 0)  -->
<svg version="1.1" id="icon" xmlns="http://www.w3.org/2000/svg" xmlns:xlink="http://www.w3.org/1999/xlink" x="0px" y="0px"
	 viewBox="0 0 128 128" style="enable-background:new 0 0 128 128;" xml:space="preserve">
<style type="text/css">
	.st0{fill:#001E36;}
	.st1{fill:#31A8FF;}
</style>
<g id="Layer_2_1_">
	<g id="Surfaces">
		<g id="Photo_Surface">
			<g id="Outline_no_shadow">
				<path class="st0" d="M22.7,1.6h82.7c12.5,0,22.7,10.1,22.7,22.7v79.5c0,12.5-10.1,22.7-22.7,22.7H22.7
					C10.1,126.4,0,116.3,0,103.7V24.3C0,11.7,10.1,1.6,22.7,1.6z"/>
			</g>
		</g>
	</g>
	<g id="Outlined_Mnemonics_Logos">
		<g id="Ps">
			<path class="st1" d="M28.8,89.1V34.2c0-0.4,0.2-0.6,0.5-0.6c0.9,0,1.8,0,3-0.1c1.3-0.1,2.6-0.1,4.1-0.1s3-0.1,4.6-0.1
				c1.7-0.1,3.3-0.1,4.9-0.1c4.4,0,8,0.5,11,1.7c2.7,0.9,5.1,2.4,7.1,4.4c1.7,1.7,3,3.8,3.9,6.1c0.8,2.2,1.2,4.5,1.2,6.9
				c0,4.6-1.1,8.4-3.2,11.4c-2.1,3-5.1,5.2-8.6,6.5c-3.6,1.3-7.6,1.8-12,1.8c-1.3,0-2.1,0-2.7-0.1c-0.5-0.1-1.3-0.1-2.3-0.1v17.1
				c0.1,0.4-0.2,0.7-0.6,0.7c-0.1,0-0.1,0-0.2,0H29.4C29,89.8,28.8,89.6,28.8,89.1z M40.4,43.9v17.9c0.7,0.1,1.4,0.1,2.1,0.1h2.8
				c2.1,0,4.2-0.3,6.1-1c1.7-0.5,3.2-1.5,4.4-2.8c1.1-1.3,1.7-3.1,1.7-5.5c0.1-1.7-0.4-3.3-1.2-4.7c-0.9-1.4-2.2-2.5-3.7-3
				c-2-0.8-4.1-1.1-6.3-1.1c-1.4,0-2.6,0-3.6,0.1C41.5,43.8,40.8,43.9,40.4,43.9L40.4,43.9z"/>
			<path class="st1" d="M102.4,58.6c-1.6-0.9-3.3-1.4-5.1-1.8c-2-0.4-3.9-0.7-6-0.7c-1.1-0.1-2.2,0.1-3.2,0.4
				c-0.7,0.2-1.3,0.5-1.7,1.1C86.2,58,86,58.5,86,59c0,0.5,0.2,1,0.5,1.4c0.5,0.6,1.1,1.1,1.8,1.4c1.2,0.6,2.5,1.2,3.8,1.8
				c2.9,1,5.7,2.3,8.2,3.9c1.8,1.1,3.2,2.6,4.2,4.4c0.9,1.7,1.3,3.6,1.2,5.5c0.1,2.5-0.7,5-2.1,7.1c-1.5,2.1-3.6,3.8-6,4.7
				c-2.6,1.1-5.8,1.7-9.7,1.7c-2.5,0-4.9-0.2-7.3-0.7c-1.9-0.3-3.7-0.9-5.4-1.7c-0.4-0.2-0.6-0.6-0.6-1v-9.3c0-0.2,0.1-0.4,0.2-0.5
				s0.3-0.1,0.5,0.1c2.1,1.2,4.3,2.1,6.6,2.6c2,0.5,4.2,0.8,6.3,0.8c2,0,3.5-0.3,4.4-0.7c0.9-0.4,1.4-1.3,1.4-2.2
				c0-0.7-0.4-1.4-1.3-2.1s-2.6-1.5-5.2-2.5c-2.7-1-5.2-2.2-7.6-3.8c-1.7-1.2-3-2.7-4.1-4.5c-0.9-1.7-1.3-3.6-1.2-5.4
				c0-2.3,0.6-4.5,1.8-6.5c1.3-2.1,3.3-3.8,5.6-4.9c2.5-1.3,5.7-1.9,9.4-1.9c2.2,0,4.4,0.2,6.6,0.5c1.6,0.2,3.1,0.6,4.6,1.2
				c0.2,0.1,0.4,0.3,0.5,0.5c0.1,0.2,0.1,0.4,0.1,0.6v8.7c0,0.2-0.1,0.4-0.3,0.5C102.9,58.7,102.6,58.7,102.4,58.6z"/>
		</g>
	</g>
</g>
</svg>
