<?xml version="1.0" encoding="utf-8"?>
<!-- Generator: Adobe Illustrator 26.5.0, SVG Export Plug-In . SVG Version: 6.00 Build 0)  -->
<svg version="1.1" id="icon" xmlns="http://www.w3.org/2000/svg" xmlns:xlink="http://www.w3.org/1999/xlink" x="0px" y="0px"
	 viewBox="0 0 128 128" style="enable-background:new 0 0 128 128;" xml:space="preserve">
<style type="text/css">
	.st0{fill:#00005B;}
	.st1{fill:#9999FF;}
</style>
<g id="vlpa">
	<g id="vlpb">
		<g id="vlpc">
			<g id="vlpd">
				<path class="st0" d="M22.7,1.6h82.7c12.5,0,22.7,10.1,22.7,22.7v79.5c0,12.5-10.1,22.7-22.7,22.7H22.7
					C10.1,126.4,0,116.3,0,103.7V24.3C0,11.7,10.1,1.6,22.7,1.6z"/>
			</g>
		</g>
	</g>
	<g id="vlpe">
		<g id="vlpf">
			<path class="st1" d="M30.4,89.1V34.1c0-0.4,0.2-0.6,0.5-0.6c0.9,0,1.8,0,3-0.1c1.3-0.1,2.6-0.1,4.1-0.1c1.4-0.1,3-0.1,4.6-0.1
				c1.7-0.1,3.3-0.1,4.9-0.1c4.4,0,8,0.5,11,1.7c2.7,0.9,5.1,2.4,7.1,4.4c1.7,1.7,3,3.8,3.9,6.1c0.8,2.2,1.2,4.5,1.2,6.9
				c0,4.6-1.1,8.4-3.2,11.4s-5.1,5.2-8.6,6.5c-3.6,1.3-7.6,1.8-12,1.8c-1.3,0-2.1,0-2.7-0.1S43,71.8,42,71.8V89
				c0.1,0.4-0.2,0.7-0.6,0.7h-0.2H31C30.6,89.7,30.4,89.5,30.4,89.1L30.4,89.1z M42,43.9v17.9c0.7,0.1,1.4,0.1,2.1,0.1h2.8
				c2.1,0,4.2-0.3,6.1-1c1.7-0.5,3.2-1.5,4.4-2.8c1.1-1.3,1.7-3.1,1.7-5.5c0.1-1.7-0.4-3.3-1.2-4.7c-0.9-1.4-2.2-2.5-3.7-3
				c-2-0.8-4.1-1.1-6.3-1.1c-1.4,0-2.6,0-3.6,0.1C43.1,43.8,42.4,43.8,42,43.9L42,43.9z"/>
			<path class="st1" d="M78.4,47h9.3c0.5,0,1,0.4,1.1,0.9c0.2,0.4,0.3,0.9,0.3,1.3c0.1,0.5,0.2,1.1,0.3,1.7c0.1,0.6,0.1,1.2,0.1,1.9
				c1.6-1.9,3.5-3.4,5.7-4.6c2.5-1.4,5.3-2.1,8.1-2.1c0.4-0.1,0.7,0.2,0.7,0.6v0.2v10.4c0,0.4-0.3,0.6-0.9,0.6
				c-1.9-0.1-3.9,0.1-5.8,0.5c-1.5,0.3-3,0.8-4.5,1.4c-1,0.5-2,1.1-2.7,2v27.2c0,0.5-0.2,0.7-0.7,0.7H79.1c-0.4,0.1-0.8-0.2-0.9-0.6
				V89V59.4c0-1.3,0-2.6-0.1-4s-0.1-2.8-0.1-4.2c0-1.2-0.1-2.4-0.2-3.6c-0.1-0.3,0.1-0.5,0.4-0.6C78.2,47,78.3,47,78.4,47L78.4,47z"
				/>
		</g>
	</g>
</g>
</svg>
