<?xml version="1.0" encoding="utf-8"?>
<!-- Generator: Adobe Illustrator 26.5.0, SVG Export Plug-In . SVG Version: 6.00 Build 0)  -->
<svg version="1.1" id="icon" xmlns="http://www.w3.org/2000/svg" xmlns:xlink="http://www.w3.org/1999/xlink" x="0px" y="0px"
	 viewBox="0 0 128 128" style="enable-background:new 0 0 128 128;" xml:space="preserve">
<style type="text/css">
	.st0{fill:#75A928;}
	.st1{fill:#BC1142;}
</style>
<g>
	<path d="M41,0c-0.6,0-1.3,0.3-2.1,0.9c-1.9-0.7-3.8-1-5.5,0.5c-2.6-0.3-3.4,0.4-4.1,1.2c-0.6,0-4.3-0.6-6,1.9
		C19.1,4,17.8,7,19.3,9.8c-0.9,1.3-1.8,2.7,0.3,5.2c-0.7,1.4-0.3,3,1.4,4.9c-0.4,2,0.4,3.4,2,4.5c-0.3,2.7,2.5,4.3,3.4,4.9
		c0.3,1.6,1,3.1,4.2,3.9c0.5,2.4,2.5,2.8,4.3,3.3c-6.2,3.6-11.5,8.3-11.4,19.9l-0.9,1.6C15.4,62.4,9.1,76.3,19,87.5
		c0.7,3.5,1.7,6.1,2.7,8.9c1.5,11.3,10.9,16.6,13.5,17.2c3.7,2.8,7.6,5.4,12.9,7.3c5,5.1,10.4,7.1,15.8,7.1c0.1,0,0.2,0,0.2,0
		c5.4,0,10.8-2,15.8-7.1c5.3-1.9,9.2-4.5,12.9-7.3c2.5-0.6,12-5.9,13.5-17.2c1-2.8,2.1-5.3,2.7-8.9c10-11.3,3.6-25.1-3.5-29.4
		l-0.9-1.6c0-11.6-5.3-16.3-11.4-19.9c1.9-0.5,3.8-0.9,4.3-3.3c3.2-0.8,3.9-2.3,4.2-3.9c0.8-0.6,3.7-2.2,3.4-4.9
		c1.6-1.1,2.5-2.5,2-4.5c1.7-1.9,2.1-3.4,1.4-4.9c2-2.6,1.1-3.9,0.3-5.2c1.5-2.8,0.2-5.8-4.1-5.3c-1.7-2.5-5.4-2-6-1.9
		c-0.6-0.8-1.5-1.5-4.1-1.2c-1.7-1.5-3.6-1.3-5.5-0.5c-2.3-1.8-3.8-0.4-5.6,0.2c-2.8-0.9-3.4,0.3-4.8,0.8c-3-0.6-4,0.8-5.4,2.2
		l-1.7,0c-4.6,2.7-6.9,8.2-7.7,11c-0.8-2.8-3.1-8.3-7.7-11l-1.7,0c-1.5-1.5-2.4-2.9-5.4-2.2c-1.4-0.5-2-1.8-4.8-0.8
		C43.3,0.7,42.3,0,41,0z"/>
	<path class="st0" d="M31.9,11.9C44.1,18.1,51.1,23.2,55,27.5c-2,7.9-12.3,8.3-16.1,8.1c0.8-0.4,1.4-0.8,1.6-1.5
		c-0.9-0.7-4.3-0.1-6.7-1.4c0.9-0.2,1.3-0.4,1.7-1c-2.2-0.7-4.6-1.3-6-2.5c0.8,0,1.5,0.2,2.5-0.5c-2-1.1-4.1-1.9-5.8-3.6
		c1,0,2.1,0,2.5-0.4c-1.8-1.1-3.4-2.4-4.6-3.8c1.4,0.2,2,0,2.4-0.2c-1.4-1.4-3.1-2.6-3.9-4.3c1.1,0.4,2,0.5,2.7,0
		c-0.5-1.1-2.5-1.7-3.6-4.1c1.1,0.1,2.3,0.2,2.6,0C23.7,10.2,22.9,9,22,7.7c2.4,0,6,0,5.9-0.2L26.4,6c2.3-0.6,4.8,0.1,6.5,0.6
		c0.8-0.6,0-1.4-1-2.2c2,0.3,3.8,0.7,5.4,1.4c0.9-0.8-0.6-1.6-1.3-2.4c3.1,0.6,4.4,1.4,5.7,2.2c0.9-0.9,0.1-1.7-0.6-2.5
		c2.3,0.9,3.5,2,4.8,3.1c0.4-0.6,1.1-1,0.3-2.4c1.7,1,2.9,2.1,3.8,3.3c1-0.7,0.6-1.5,0.6-2.4c1.7,1.4,2.8,2.9,4.1,4.3
		c0.3-0.2,0.5-0.9,0.7-1.9c4.1,4,9.9,14,1.5,17.9C49.9,19.4,41.4,15.1,31.9,11.9z"/>
	<path class="st0" d="M96.4,11.9c-12.2,6.3-19.2,11.3-23.1,15.6c2,7.9,12.3,8.3,16.1,8.1c-0.8-0.4-1.4-0.8-1.6-1.5
		c0.9-0.7,4.3-0.1,6.7-1.4c-0.9-0.2-1.3-0.4-1.7-1c2.2-0.7,4.6-1.3,6-2.5c-0.8,0-1.5,0.2-2.5-0.5c2-1.1,4.1-1.9,5.8-3.6
		c-1,0-2.1,0-2.5-0.4c1.8-1.1,3.4-2.4,4.6-3.8c-1.4,0.2-2,0-2.4-0.2c1.4-1.4,3.1-2.6,3.9-4.3c-1.1,0.4-2,0.5-2.7,0
		c0.5-1.1,2.5-1.7,3.6-4.1c-1.1,0.1-2.3,0.2-2.6,0c0.5-2.1,1.4-3.3,2.3-4.6c-2.4,0-6,0-5.9-0.2l1.5-1.5c-2.3-0.6-4.8,0.1-6.5,0.6
		c-0.8-0.6,0-1.4,1-2.2c-2,0.3-3.8,0.7-5.4,1.4c-0.9-0.8,0.6-1.6,1.3-2.4c-3.1,0.6-4.4,1.4-5.7,2.2c-0.9-0.9-0.1-1.7,0.6-2.5
		c-2.3,0.9-3.5,2-4.8,3.1c-0.4-0.6-1.1-1-0.3-2.4c-1.7,1-2.9,2.1-3.8,3.3c-1-0.7-0.6-1.5-0.6-2.4c-1.7,1.4-2.8,2.9-4.1,4.3
		c-0.3-0.2-0.5-0.9-0.7-1.9c-4.1,4-9.9,14-1.5,17.9C78.4,19.4,86.9,15.1,96.4,11.9L96.4,11.9z"/>
	<path class="st1" d="M78.9,92.8c0,7.4-6.5,13.4-14.6,13.4s-14.6-6-14.6-13.4c0-7.4,6.5-13.4,14.6-13.4S78.9,85.4,78.9,92.8z"/>
	<path class="st1" d="M55.9,54.4c6,4,7.1,12.9,2.4,20s-13.4,9.6-19.4,5.7l0,0c-6-4-7.1-12.9-2.4-20C41.2,53,49.8,50.5,55.9,54.4
		L55.9,54.4z"/>
	<path class="st1" d="M72.2,53.7c-6,4-7.1,12.9-2.4,20s13.4,9.6,19.4,5.7l0,0c6-4,7.1-12.9,2.4-20S78.2,49.8,72.2,53.7L72.2,53.7z"
		/>
	<path class="st1" d="M25.7,60.9c6.5-1.7,2.2,26.9-3.1,24.6C16.8,80.8,14.9,67.1,25.7,60.9z"/>
	<path class="st1" d="M101,60.5c-6.5-1.7-2.2,26.9,3.1,24.6C109.9,80.4,111.8,66.7,101,60.5z"/>
	<path class="st1" d="M78.9,39.2c11.2-1.9,20.6,4.8,20.2,17C98.7,60.8,74.7,39.9,78.9,39.2L78.9,39.2z"/>
	<path class="st1" d="M47.8,38.8c-11.2-1.9-20.6,4.8-20.2,17C28,60.4,51.9,39.5,47.8,38.8z"/>
	<path class="st1" d="M64,36c-6.7-0.2-13.1,5-13.2,8c0,3.6,5.3,7.3,13.2,7.4c8.1,0.1,13.2-3,13.2-6.7C77.3,40.4,69.9,35.9,64,36
		L64,36z"/>
	<path class="st1" d="M64.4,110.4c5.8-0.3,13.7,1.9,13.7,4.7c0.1,2.8-7.1,9-14.1,8.9c-7.2,0.3-14.3-5.9-14.2-8.1
		C49.6,112.8,58.6,110.3,64.4,110.4z"/>
	<path class="st1" d="M42.8,93.6c4.2,5,6.1,13.8,2.6,16.4c-3.3,2-11.3,1.2-16.9-7c-3.8-6.8-3.3-13.8-0.6-15.8
		C31.8,84.8,38,88.1,42.8,93.6z"/>
	<path class="st1" d="M85.1,92c-4.5,5.3-7,14.9-3.7,18c3.1,2.4,11.6,2.1,17.8-6.6c4.5-5.8,3-15.5,0.4-18.1
		C95.8,82.4,90.3,86.2,85.1,92z"/>
</g>
</svg>
