<?xml version="1.0" encoding="utf-8"?>
<!-- Generator: Adobe Illustrator 26.5.0, SVG Export Plug-In . SVG Version: 6.00 Build 0)  -->
<svg version="1.1" id="icon" xmlns="http://www.w3.org/2000/svg" xmlns:xlink="http://www.w3.org/1999/xlink" x="0px" y="0px"
	 viewBox="0 0 128 128" style="enable-background:new 0 0 128 128;" xml:space="preserve">
<style type="text/css">
	.st0{clip-path:url(#SVGID_00000096763163625180466580000000243189586403846582_);}
	.st1{clip-path:url(#SVGID_00000180335168590746251220000016031548635020487825_);fill:#FFFFFF;}
	.st2{clip-path:url(#SVGID_00000180335168590746251220000016031548635020487825_);fill:#53C1DE;}
</style>
<g>
	<g>
		<defs>
			<rect id="SVGID_1_" x="-7.2" y="0" width="142.5" height="128"/>
		</defs>
		<clipPath id="SVGID_00000175290173130936049670000018298378411648483494_">
			<use xlink:href="#SVGID_1_"  style="overflow:visible;"/>
		</clipPath>
		<g style="clip-path:url(#SVGID_00000175290173130936049670000018298378411648483494_);">
			<defs>
				<rect id="SVGID_00000150071756724569816620000010164266040506846854_" x="-7.2" y="0" width="142.5" height="128"/>
			</defs>
			<clipPath id="SVGID_00000070110568347060205270000004606651743289703072_">
				<use xlink:href="#SVGID_00000150071756724569816620000010164266040506846854_"  style="overflow:visible;"/>
			</clipPath>
			<path style="clip-path:url(#SVGID_00000070110568347060205270000004606651743289703072_);fill:#FFFFFF;" d="M-6.8,63.9
				c0,10.7,10.4,20.7,26.9,26.3c-3.3,16.5-0.6,29.9,8.4,35.1c9.3,5.3,23.1,1.6,36.2-9.8c12.8,11,25.7,15.3,34.7,10.1
				c9.3-5.4,12.1-19.6,8.7-36.7c17.1-5.7,26.7-14.2,26.7-25c0-10.4-10.5-19.5-26.7-25.1C111.7,21,108.6,8,99.2,2.6
				c-9-5.2-22.1-0.7-35.1,10.6C50.7,1.2,37.8-2.4,28.4,3c-9,5.2-11.6,18.8-8.3,35.7C4.2,44.2-6.8,53.5-6.8,63.9"/>
			<path style="clip-path:url(#SVGID_00000070110568347060205270000004606651743289703072_);fill:#53C1DE;" d="M104.6,44.3
				c-1.3-0.5-2.7-0.9-4-1.3c0.2-0.9,0.4-1.8,0.6-2.8c3.1-14.9,1.1-26.9-5.8-30.8c-6.6-3.8-17.3,0.2-28.1,9.6
				C66.2,20,65.2,21,64.2,22c-0.7-0.7-1.4-1.3-2.1-1.9C50.7,10,39.4,5.7,32.5,9.7C26,13.5,24,24.7,26.8,38.8
				c0.3,1.4,0.6,2.8,0.9,4.2c-1.6,0.5-3.2,0.9-4.7,1.5C9.7,49.1,1.2,56.4,1.2,63.9c0,7.8,9.1,15.6,23,20.3c1.1,0.4,2.3,0.7,3.4,1.1
				c-0.4,1.5-0.7,3-1,4.5c-2.6,13.9-0.6,24.9,6,28.6c6.8,3.9,18.1-0.1,29.1-9.8c0.9-0.8,1.7-1.6,2.6-2.4c1.1,1.1,2.2,2.1,3.4,3.1
				c10.7,9.2,21.2,12.9,27.8,9.1c6.7-3.9,8.9-15.7,6.1-30.1c-0.2-1.1-0.5-2.2-0.8-3.4c0.8-0.2,1.6-0.5,2.3-0.7
				c14.4-4.8,23.8-12.5,23.8-20.4C127,56.3,118.2,49,104.6,44.3"/>
			<path style="clip-path:url(#SVGID_00000070110568347060205270000004606651743289703072_);fill:#FFFFFF;" d="M101.5,79.2
				c-0.7,0.2-1.4,0.4-2.1,0.7c-1.6-5-3.7-10.4-6.4-15.9c2.5-5.4,4.6-10.7,6.1-15.7c1.3,0.4,2.5,0.8,3.7,1.2
				c11.6,4,18.7,9.9,18.7,14.5C121.6,68.8,114,75.1,101.5,79.2L101.5,79.2z M96.3,89.4c1.3,6.4,1.4,12.1,0.6,16.6
				c-0.7,4-2.3,6.7-4.1,7.8c-4,2.3-12.4-0.7-21.6-8.6c-1-0.9-2.1-1.9-3.2-2.9c3.5-3.9,7.1-8.4,10.5-13.4c6.1-0.5,11.8-1.4,17-2.6
				C95.9,87.4,96.1,88.5,96.3,89.4 M44.1,113.4c-3.9,1.4-7,1.4-8.8,0.3c-4-2.3-5.6-11.1-3.4-23c0.3-1.4,0.6-2.8,0.9-4.2
				c5.2,1.1,10.9,2,16.9,2.5c3.5,4.9,7.1,9.4,10.8,13.3c-0.8,0.8-1.6,1.5-2.4,2.2C53.3,108.9,48.4,111.9,44.1,113.4L44.1,113.4z
				 M26,79.2c-6.1-2.1-11.2-4.8-14.7-7.8c-3.1-2.7-4.7-5.3-4.7-7.5c0-4.6,6.8-10.4,18.2-14.4c1.4-0.5,2.9-1,4.3-1.4
				c1.6,5.1,3.6,10.5,6.1,15.9c-2.5,5.5-4.6,10.9-6.2,16.1C28,79.9,27,79.5,26,79.2 M32.1,37.8c-2.4-12.1-0.8-21.2,3.2-23.5
				c4.2-2.4,13.5,1,23.3,9.7c0.6,0.6,1.3,1.1,1.9,1.7c-3.7,3.9-7.3,8.4-10.7,13.3c-5.9,0.5-11.6,1.4-16.8,2.6
				C32.6,40.4,32.3,39.1,32.1,37.8L32.1,37.8z M86.3,51.2c-1.2-2.1-2.5-4.2-3.8-6.3c4,0.5,7.9,1.2,11.5,2c-1.1,3.5-2.4,7.1-4,10.8
				C88.8,55.5,87.5,53.3,86.3,51.2 M64.2,29.6c2.5,2.7,5,5.7,7.4,8.9c-5-0.2-9.9-0.2-14.9,0C59.2,35.3,61.7,32.4,64.2,29.6
				 M41.9,51.2c-1.2,2.1-2.4,4.3-3.5,6.5c-1.6-3.7-2.9-7.4-4-10.9c3.6-0.8,7.4-1.5,11.4-2C44.4,47,43.2,49.1,41.9,51.2 M45.9,83.3
				c-4.1-0.5-8-1.1-11.6-1.9c1.1-3.6,2.5-7.3,4.1-11.1c1.1,2.2,2.3,4.4,3.6,6.5C43.2,79,44.5,81.2,45.9,83.3 M64.3,98.6
				c-2.5-2.7-5.1-5.8-7.6-9.1c2.4,0.1,4.9,0.1,7.4,0.1c2.6,0,5.1-0.1,7.6-0.2C69.3,92.8,66.8,95.9,64.3,98.6 M90,70.2
				c1.7,3.8,3.1,7.5,4.2,11.1c-3.6,0.8-7.6,1.5-11.7,2c1.3-2.1,2.6-4.2,3.9-6.4C87.6,74.6,88.8,72.4,90,70.2 M81.7,74.1
				c-1.9,3.3-3.9,6.6-6,9.7c-3.7,0.3-7.6,0.4-11.5,0.4c-3.9,0-7.7-0.1-11.4-0.4c-2.2-3.2-4.2-6.4-6.1-9.7c-1.9-3.3-3.7-6.7-5.4-10.1
				c1.7-3.4,3.4-6.8,5.3-10.1v0c1.9-3.3,3.9-6.5,6.1-9.7c3.7-0.3,7.6-0.4,11.5-0.4c3.9,0,7.7,0.1,11.5,0.4c2.1,3.2,4.2,6.4,6.1,9.7
				c1.9,3.3,3.7,6.7,5.4,10.1C85.4,67.4,83.6,70.8,81.7,74.1L81.7,74.1z M92.8,14.2c4.2,2.4,5.8,12.2,3.2,25.1
				c-0.2,0.8-0.4,1.7-0.6,2.5c-5.2-1.2-10.9-2.1-16.8-2.7c-3.5-4.9-7-9.4-10.6-13.3c0.9-0.9,1.9-1.8,2.9-2.7
				C80.1,15.1,88.8,11.9,92.8,14.2"/>
			<path style="clip-path:url(#SVGID_00000070110568347060205270000004606651743289703072_);fill:#53C1DE;" d="M64.1,52.7
				c6.2,0,11.2,5,11.2,11.2c0,6.2-5,11.2-11.2,11.2c-6.2,0-11.2-5-11.2-11.2C52.9,57.7,57.9,52.7,64.1,52.7"/>
		</g>
	</g>
</g>
</svg>
