<?xml version="1.0" encoding="utf-8"?>
<!-- Generator: Adobe Illustrator 26.5.0, SVG Export Plug-In . SVG Version: 6.00 Build 0)  -->
<svg version="1.1" id="icon" xmlns="http://www.w3.org/2000/svg" xmlns:xlink="http://www.w3.org/1999/xlink" x="0px" y="0px"
	 viewBox="0 0 128 128" style="enable-background:new 0 0 128 128;" xml:space="preserve">
<style type="text/css">
	.st0{fill-rule:evenodd;clip-rule:evenodd;fill:#D06397;}
	.st1{fill:#FFFFFF;}
</style>
<g transform="translate(1.4065934065934016 1.4065934065934016) scale(2.81 2.81)">
	<path class="st0" d="M22.3-0.5c12.6,0,22.8,10.2,22.8,22.8S34.9,45.1,22.3,45.1S-0.5,34.9-0.5,22.3S9.7-0.5,22.3-0.5L22.3-0.5z"/>
	<path class="st1" d="M36.6,9.2c-1-4-7.7-5.4-14.1-3.1c-3.8,1.3-7.9,3.4-10.8,6.2c-3.5,3.3-4.1,6.1-3.8,7.3c0.8,4.2,6.6,6.9,8.9,9v0
		c-0.7,0.3-5.8,2.9-7,5.6C8.5,37,10,39,10.9,39.2c3,0.8,6.1-0.7,7.7-3.1c1.6-2.4,1.5-5.4,0.8-7c1-0.3,2.1-0.4,3.5-0.2
		c4,0.5,4.8,3,4.6,4c-0.1,1-1,1.6-1.3,1.8c-0.3,0.2-0.4,0.2-0.3,0.4c0,0.2,0.2,0.2,0.4,0.1c0.3-0.1,2.1-0.8,2.2-2.8
		c0.1-2.4-2.2-5.2-6.4-5.1c-1.7,0-2.8,0.2-3.6,0.5c-0.1-0.1-0.1-0.1-0.2-0.2c-2.6-2.7-7.3-4.7-7.1-8.4c0.1-1.3,0.5-4.9,9.1-9.1
		C27.4,6.6,33,7.6,34,9.7c1.4,3.1-3,8.7-10.3,9.5c-2.8,0.3-4.2-0.8-4.6-1.2c-0.4-0.4-0.4-0.4-0.6-0.4c-0.2,0.1-0.1,0.5,0,0.7
		c0.2,0.6,1.1,1.6,2.6,2.1c1.3,0.4,4.6,0.7,8.6-0.8C34.1,18,37.6,13.2,36.6,9.2z M17.7,29.9c0.3,1.2,0.3,2.4,0,3.4
		c0,0.1-0.1,0.2-0.1,0.3c0,0.1-0.1,0.2-0.1,0.3c-0.3,0.5-0.6,1.1-1.1,1.5c-1.3,1.4-3.2,2-4,1.5c-0.9-0.5-0.4-2.5,1.1-4.2
		c1.7-1.7,4-2.9,4-2.9l0,0C17.6,29.9,17.7,29.9,17.7,29.9z"/>
</g>
</svg>
