<?xml version="1.0" encoding="utf-8"?>
<!-- Generator: Adobe Illustrator 26.5.0, SVG Export Plug-In . SVG Version: 6.00 Build 0)  -->
<svg version="1.1" id="icon" xmlns="http://www.w3.org/2000/svg" xmlns:xlink="http://www.w3.org/1999/xlink" x="0px" y="0px"
	 viewBox="0 0 128 128" style="enable-background:new 0 0 128 128;" xml:space="preserve">
<style type="text/css">
	.st0{fill:#3178C6;}
	.st1{fill-rule:evenodd;clip-rule:evenodd;fill:#FFFFFF;}
</style>
<g>
	<path class="st0" d="M12.5,0h103c6.9,0,12.5,5.6,12.5,12.5v103c0,6.9-5.6,12.5-12.5,12.5h-103C5.6,128,0,122.4,0,115.5v-103
		C0,5.6,5.6,0,12.5,0z"/>
	<path class="st0" d="M12.5,0h103c6.9,0,12.5,5.6,12.5,12.5v103c0,6.9-5.6,12.5-12.5,12.5h-103C5.6,128,0,122.4,0,115.5v-103
		C0,5.6,5.6,0,12.5,0z"/>
	<path class="st1" d="M79.2,101.9v12.5c2,1,4.4,1.8,7.2,2.3s5.7,0.8,8.8,0.8c3,0,5.8-0.3,8.5-0.9c2.7-0.6,5.1-1.5,7.1-2.8
		c2-1.3,3.6-3,4.8-5.2s1.8-4.8,1.8-7.9c0-2.3-0.3-4.3-1-6s-1.7-3.2-2.9-4.6c-1.3-1.3-2.8-2.5-4.6-3.6s-3.8-2.1-6-3
		c-1.6-0.7-3.1-1.3-4.4-2c-1.3-0.6-2.4-1.3-3.3-2c-0.9-0.7-1.6-1.4-2.1-2.1c-0.5-0.7-0.7-1.6-0.7-2.5c0-0.9,0.2-1.6,0.7-2.3
		s1.1-1.3,1.9-1.8c0.8-0.5,1.8-0.9,3-1.2c1.2-0.3,2.5-0.4,3.9-0.4c1,0,2.1,0.1,3.3,0.2c1.2,0.2,2.3,0.4,3.5,0.7
		c1.2,0.3,2.3,0.7,3.4,1.2c1.1,0.5,2.1,1.1,3.1,1.7V61.7c-1.9-0.7-4-1.3-6.2-1.6s-4.8-0.5-7.8-0.5c-3,0-5.8,0.3-8.5,1s-5,1.6-7,3
		c-2,1.4-3.6,3.1-4.8,5.2c-1.2,2.1-1.8,4.6-1.8,7.5c0,3.7,1.1,6.9,3.2,9.5c2.2,2.6,5.4,4.9,9.8,6.7c1.7,0.7,3.3,1.4,4.8,2.1
		s2.8,1.4,3.9,2.1c1.1,0.7,1.9,1.5,2.6,2.4c0.6,0.9,0.9,1.8,0.9,2.9c0,0.8-0.2,1.6-0.6,2.2s-1,1.3-1.8,1.8s-1.8,0.9-3,1.2
		c-1.2,0.3-2.6,0.4-4.2,0.4c-2.7,0-5.4-0.5-8.1-1.4C84,105.2,81.5,103.8,79.2,101.9L79.2,101.9z M58.2,71h16.1V60.8H29.5V71h16v45.7
		h12.7V71z"/>
</g>
</svg>
